<?xml version="1.0" encoding="UTF-8" standalone="no"?>
<!-- Created with Inkscape (http://www.inkscape.org/) -->

<svg
   xmlns:dc="http://purl.org/dc/elements/1.1/"
   xmlns:cc="http://creativecommons.org/ns#"
   xmlns:rdf="http://www.w3.org/1999/02/22-rdf-syntax-ns#"
   xmlns:svg="http://www.w3.org/2000/svg"
   xmlns="http://www.w3.org/2000/svg"
   xmlns:sodipodi="http://sodipodi.sourceforge.net/DTD/sodipodi-0.dtd"
   xmlns:inkscape="http://www.inkscape.org/namespaces/inkscape"
   width="40.096329mm"
   height="10.58425mm"
   viewBox="0 0 40.096329 10.58425"
   version="1.1"
   id="svg3947"
   inkscape:version="0.92.3 (2405546, 2018-03-11)"
   sodipodi:docname="barneys.svg">
  <defs
     id="defs3941" />
  <sodipodi:namedview
     id="base"
     pagecolor="#ffffff"
     bordercolor="#666666"
     borderopacity="1.0"
     inkscape:pageopacity="0.0"
     inkscape:pageshadow="2"
     inkscape:zoom="0.98994949"
     inkscape:cx="244.87585"
     inkscape:cy="23.797645"
     inkscape:document-units="mm"
     inkscape:current-layer="layer1"
     showgrid="false"
     fit-margin-top="0"
     fit-margin-left="0"
     fit-margin-right="0"
     fit-margin-bottom="0"
     inkscape:window-width="1366"
     inkscape:window-height="705"
     inkscape:window-x="-8"
     inkscape:window-y="-8"
     inkscape:window-maximized="1" />
  <metadata
     id="metadata3944">
    <rdf:RDF>
      <cc:Work
         rdf:about="">
        <dc:format>image/svg+xml</dc:format>
        <dc:type
           rdf:resource="http://purl.org/dc/dcmitype/StillImage" />
        <dc:title></dc:title>
      </cc:Work>
    </rdf:RDF>
  </metadata>
  <g
     inkscape:label="Layer 1"
     inkscape:groupmode="layer"
     id="layer1"
     transform="translate(-89.447873,-110.22215)">
    <path
       style="fill:#2e2e2e;stroke-width:0.26458335"
       d="m 115.24493,120.61869 c -0.87722,-0.32255 -1.32291,-0.97242 -1.32291,-1.92896 0,-0.99772 0.61651,-1.85208 1.33647,-1.85208 0.2214,0 0.13377,0.1646 -0.21927,0.41187 -0.89839,0.62926 -0.82151,2.28022 0.13957,2.99726 0.74624,0.55676 0.75865,0.62654 0.0661,0.37191 z m 7.02028,-0.6766 -0.93486,-0.93486 v 0.76729 c 0,0.43745 -0.14218,0.76729 -0.33073,0.76729 -0.23308,0 -0.33073,-0.5468 -0.33073,-1.85208 0,-1.8303 0.008,-1.85208 0.70596,-1.85208 0.38829,0 0.8943,0.0723 1.12448,0.1606 0.53157,0.20398 0.54771,1.39393 0.0217,1.5958 -0.54998,0.21105 -0.50096,0.43527 0.27923,1.27711 1.0102,1.09002 0.54568,1.15161 -0.535,0.0709 z m -0.009,-2.04611 c 0,-0.4127 -0.17093,-0.68713 -0.46302,-0.74338 -0.36176,-0.0697 -0.46302,0.0929 -0.46302,0.74338 0,0.65049 0.10126,0.81305 0.46302,0.74338 0.29209,-0.0563 0.46302,-0.33068 0.46302,-0.74338 z m 6.0325,1.98438 c -0.50932,-0.50933 -0.95304,-0.92605 -0.98605,-0.92605 -0.033,0 -0.008,0.35719 0.0565,0.79375 0.0808,0.55081 0.006,0.79375 -0.24426,0.79375 -0.27027,0 -0.36076,-0.46458 -0.36076,-1.85208 0,-1.3875 0.0905,-1.85208 0.36076,-1.85208 0.25034,0 0.3251,0.24294 0.24426,0.79375 -0.0641,0.43656 -0.0262,0.79375 0.0842,0.79375 0.11041,0 0.45509,-0.35719 0.76595,-0.79375 0.31085,-0.43657 0.69951,-0.79375 0.86366,-0.79375 0.16416,0 -0.0868,0.39749 -0.55768,0.88332 l -0.85614,0.88332 1.06853,1.10105 c 0.5877,0.60558 0.9377,1.10106 0.77779,1.10106 -0.15991,0 -0.70747,-0.41672 -1.21679,-0.92604 z m -38.840834,-1.2901 c 0,-2.24233 0.156169,-2.2974 1.482105,-0.52258 l 0.899145,1.20354 0.08064,-1.21679 c 0.13137,-1.98219 0.608982,-1.41862 0.538403,0.6353 -0.035,1.01865 -0.129078,1.84757 -0.209053,1.84204 -0.07997,-0.006 -0.62166,-0.69013 -1.203743,-1.52135 l -1.058333,-1.51131 -0.07935,1.52135 c -0.114401,2.19339 -0.449817,1.87261 -0.449817,-0.4302 z m 6.217708,0.0995 v -1.85208 h 1.042719 c 0.573495,0 1.111944,0.11201 1.196554,0.24891 0.09125,0.14764 -0.225327,0.18738 -0.778135,0.0977 -0.868398,-0.14092 -0.931971,-0.10376 -0.931971,0.54484 0,0.59703 0.112945,0.69608 0.79375,0.69608 0.436563,0 0.79375,0.11906 0.79375,0.26458 0,0.14552 -0.357187,0.26458 -0.79375,0.26458 -0.679152,0 -0.79375,0.0997 -0.79375,0.69041 0,0.63324 0.07668,0.68145 0.926042,0.58229 0.509323,-0.0595 0.926041,-0.013 0.926041,0.10335 0,0.1163 -0.535781,0.21145 -1.190625,0.21145 h -1.190625 z m 5.741026,0.33036 c -0.26217,-0.83654 -0.53998,-1.66981 -0.61736,-1.85171 -0.0797,-0.18744 0.0476,-0.33073 0.29386,-0.33073 0.23899,0 0.37671,0.0936 0.30604,0.20791 -0.0707,0.11435 0.0753,0.66988 0.32443,1.2345 l 0.45293,1.02659 0.36376,-1.10221 c 0.20007,-0.60622 0.43907,-1.10221 0.53112,-1.10221 0.0921,0 0.32925,0.56555 0.52711,1.25677 l 0.35976,1.25677 0.4193,-1.38906 c 0.23061,-0.76398 0.52287,-1.38906 0.64947,-1.38906 0.12659,0 0.14531,0.20836 0.0416,0.46302 -0.10373,0.25466 -0.37041,0.9988 -0.59265,1.65364 -0.58402,1.72093 -0.75191,1.77287 -1.12464,0.34791 l -0.33323,-1.27395 -0.35203,0.79375 c -0.19362,0.43656 -0.3574,1.00211 -0.36397,1.25677 -0.0234,0.90819 -0.41627,0.43848 -0.88548,-1.0587 z m 7.75174,0.52954 c -5.6e-4,-0.54571 -0.23692,-1.37914 -0.52528,-1.85209 -0.28836,-0.47294 -0.40523,-0.85989 -0.25971,-0.85989 0.14552,0 0.49051,0.37149 0.76663,0.82554 l 0.50204,0.82554 0.43962,-0.85013 c 0.24179,-0.46757 0.50395,-0.7858 0.58258,-0.70717 0.0786,0.0786 -0.12152,0.57092 -0.44479,1.09397 -0.38183,0.61781 -0.54751,1.22524 -0.47288,1.73371 0.078,0.53166 0.002,0.7827 -0.23617,0.7827 -0.2291,0 -0.3514,-0.34469 -0.35204,-0.99218 z m 7.40932,0.46302 c 0.7151,-0.7151 0.66634,-1.73896 -0.12027,-2.52557 -0.4306,-0.4306 -0.52322,-0.64943 -0.27489,-0.64943 0.59244,0 1.45349,1.09186 1.45349,1.8431 0,0.82092 -0.67382,1.86106 -1.20562,1.86106 -0.28368,0 -0.2458,-0.13607 0.14729,-0.52916 z m -26.855211,-6.02333 c -0.14552,-0.10691 -0.264583,-0.99827 -0.264583,-1.98079 v -1.78641 l 0.827499,4.7e-4 c 1.055967,6e-4 1.645484,0.63933 1.219556,1.32135 -0.238162,0.38135 -0.220738,0.51547 0.08206,0.63167 0.465703,0.1787 0.503896,0.99715 0.06692,1.43412 -0.510848,0.51085 -0.774461,0.36523 -0.412347,-0.22778 0.284199,-0.46541 0.257743,-0.60105 -0.180619,-0.92604 -0.81224,-0.60217 -1.004456,-0.45686 -0.896271,0.67757 0.102298,1.07269 0.03368,1.20548 -0.442222,0.85584 z m 1.322917,-2.84021 c 0,-0.28706 -0.208359,-0.56205 -0.463021,-0.61109 -0.346802,-0.0668 -0.463021,0.0866 -0.463021,0.61109 0,0.52449 0.116219,0.67787 0.463021,0.61108 0.254662,-0.049 0.463021,-0.32403 0.463021,-0.61108 z m 12.352624,2.24895 c -0.84851,-0.96698 -1.07384,-0.99981 -0.90801,-0.13229 0.085,0.44473 0.008,0.66125 -0.23512,0.66081 -0.27121,-4.9e-4 -0.36158,-0.46345 -0.36158,-1.85228 v -1.85163 l 0.80698,2e-4 c 1.36607,3.3e-4 1.86397,0.94744 0.99997,1.90215 -0.41653,0.46026 -0.39843,0.53389 0.31409,1.2776 0.41585,0.43406 0.60401,0.78919 0.41813,0.78919 -0.18587,0 -0.65138,-0.35718 -1.03446,-0.79375 z m 0.0828,-2.11666 c 0,-0.4127 -0.17093,-0.68713 -0.46302,-0.74338 -0.36177,-0.0697 -0.46302,0.0929 -0.46302,0.74338 0,0.65048 0.10125,0.81305 0.46302,0.74338 0.29209,-0.0563 0.46302,-0.33068 0.46302,-0.74338 z m 11.57552,2.73518 c -0.21984,-0.0887 -0.33072,-0.74702 -0.33072,-1.96348 v -1.83004 h 1.05833 c 0.58208,0 1.05833,0.0984 1.05833,0.21876 0,0.12032 -0.35719,0.16634 -0.79375,0.10226 -0.74216,-0.10892 -0.79375,-0.061 -0.79375,0.73813 0,0.76893 0.0663,0.84195 0.66146,0.72818 0.3638,-0.0695 0.66146,-0.0239 0.66146,0.10145 0,0.12534 -0.29766,0.22789 -0.66146,0.22789 -0.52917,0 -0.66146,0.13229 -0.66146,0.66146 0,0.58165 0.11361,0.66146 0.94166,0.66146 0.5604,0 0.87545,0.10712 0.77813,0.26458 -0.16821,0.27218 -1.33092,0.32634 -1.91823,0.0893 z M 95.69709,112.5382 c 0.304124,-0.76399 0.64825,-1.62719 0.764725,-1.91823 0.189807,-0.47428 0.252681,-0.43312 0.606174,0.39687 1.20214,2.82259 1.228146,2.91042 0.861734,2.91042 -0.19508,0 -0.429398,-0.29766 -0.520707,-0.66146 -0.233847,-0.93172 -1.400937,-0.93172 -1.634784,0 -0.09131,0.3638 -0.270433,0.66146 -0.398055,0.66146 -0.127622,0 0.01679,-0.62508 0.320913,-1.38906 z m 1.287358,-0.39688 c -0.0052,-0.2533 -0.515639,-1.05211 -0.521064,-0.81539 -0.0022,0.0972 -0.07632,0.36513 -0.164651,0.59532 -0.105386,0.27463 -0.01443,0.41851 0.264584,0.41851 0.23385,0 0.423359,-0.0893 0.421131,-0.19844 z m 10.851972,-0.0661 c 0,-1.01865 0.1098,-1.85209 0.244,-1.85209 0.13419,0 0.72874,0.56555 1.3212,1.25677 l 1.07722,1.25678 0.002,-1.25678 c 9.2e-4,-0.69122 0.091,-1.25686 0.20013,-1.25696 0.10914,-1.1e-4 0.19844,0.83303 0.19844,1.85143 0,1.01839 -0.0595,1.84691 -0.13229,1.84114 -0.0728,-0.006 -0.60855,-0.65725 -1.19063,-1.44774 -0.58208,-0.7905 -1.11786,-1.4405 -1.19062,-1.44444 -0.0728,-0.004 -0.0915,0.64784 -0.0417,1.4484 0.058,0.9315 -0.0134,1.45557 -0.19844,1.45557 -0.18151,0 -0.28907,-0.68916 -0.28907,-1.85208 z m 13.69982,0.99218 c 0.0701,-0.60429 -0.10056,-1.15482 -0.57432,-1.85208 -0.37077,-0.5457 -0.56336,-0.99219 -0.42796,-0.99219 0.2575,0 0.58172,0.32448 1.15641,1.15731 0.32082,0.46492 0.36351,0.4443 0.68454,-0.33073 0.1883,-0.45462 0.45875,-0.82658 0.60099,-0.82658 0.14224,0 0.009,0.42353 -0.29668,0.94117 -0.30542,0.51764 -0.5553,1.35108 -0.5553,1.85208 0,0.57075 -0.12837,0.91092 -0.34375,0.91092 -0.2319,0 -0.31127,-0.27978 -0.24393,-0.8599 z m 5.35018,0.5797 c 0,-0.15411 0.11906,-0.20661 0.26458,-0.11667 0.14552,0.0899 0.26459,0.21602 0.26459,0.28019 0,0.0642 -0.11907,0.11668 -0.26459,0.11668 -0.14552,0 -0.26458,-0.12609 -0.26458,-0.2802 z m 1.50466,-0.31511 c 0.0815,-0.44751 -0.0919,-0.70722 -0.69815,-1.04603 -0.89174,-0.49834 -1.12073,-1.62105 -0.388,-1.90223 0.62933,-0.24149 1.3821,-0.19334 1.5634,0.1 0.0999,0.16163 -0.1454,0.19931 -0.64584,0.0992 -0.66069,-0.13214 -0.8069,-0.075 -0.8069,0.31545 0,0.26225 0.37303,0.78825 0.82897,1.16888 0.64693,0.54008 0.78828,0.82031 0.64363,1.27604 -0.24279,0.76498 -0.63679,0.756 -0.49711,-0.0113 z"
       id="path3960"
       inkscape:connector-curvature="0" />
  </g>
</svg>
