<?xml version="1.0" encoding="UTF-8" standalone="no"?>
<!-- Created with Inkscape (http://www.inkscape.org/) -->

<svg
   xmlns:dc="http://purl.org/dc/elements/1.1/"
   xmlns:cc="http://creativecommons.org/ns#"
   xmlns:rdf="http://www.w3.org/1999/02/22-rdf-syntax-ns#"
   xmlns:svg="http://www.w3.org/2000/svg"
   xmlns="http://www.w3.org/2000/svg"
   xmlns:sodipodi="http://sodipodi.sourceforge.net/DTD/sodipodi-0.dtd"
   xmlns:inkscape="http://www.inkscape.org/namespaces/inkscape"
   width="34.39592mm"
   height="18.537962mm"
   viewBox="0 0 34.39592 18.537962"
   version="1.1"
   id="svg3968"
   inkscape:version="0.92.3 (2405546, 2018-03-11)"
   sodipodi:docname="billabong.svg">
  <defs
     id="defs3962" />
  <sodipodi:namedview
     id="base"
     pagecolor="#ffffff"
     bordercolor="#666666"
     borderopacity="1.0"
     inkscape:pageopacity="0.0"
     inkscape:pageshadow="2"
     inkscape:zoom="0.98994949"
     inkscape:cx="418.47687"
     inkscape:cy="47.5212"
     inkscape:document-units="mm"
     inkscape:current-layer="layer1"
     showgrid="false"
     fit-margin-top="0"
     fit-margin-left="0"
     fit-margin-right="0"
     fit-margin-bottom="0"
     inkscape:window-width="1366"
     inkscape:window-height="705"
     inkscape:window-x="-8"
     inkscape:window-y="-8"
     inkscape:window-maximized="1" />
  <metadata
     id="metadata3965">
    <rdf:RDF>
      <cc:Work
         rdf:about="">
        <dc:format>image/svg+xml</dc:format>
        <dc:type
           rdf:resource="http://purl.org/dc/dcmitype/StillImage" />
        <dc:title></dc:title>
      </cc:Work>
    </rdf:RDF>
  </metadata>
  <g
     inkscape:label="Layer 1"
     inkscape:groupmode="layer"
     id="layer1"
     transform="translate(-165.07164,-265.54712)">
    <path
       style="fill:#252525;stroke-width:0.26458332"
       d="m 165.07168,281.2772 v -2.79075 l 1.64832,0.0788 c 1.52499,0.0729 1.66718,0.13262 1.90034,0.79837 0.19666,0.56151 0.15173,0.83041 -0.20453,1.22408 -0.40288,0.44517 -0.40855,0.52291 -0.0483,0.66116 0.25961,0.0996 0.4083,0.49148 0.4083,1.07603 0,1.19773 -0.76344,1.74309 -2.44012,1.74309 h -1.26405 z m 3.02381,1.84581 c 0.8821,-0.88209 0.0678,-1.96547 -1.47732,-1.96547 h -1.01732 v 1.19062 1.19063 h 1.03943 c 0.59216,0 1.21834,-0.17891 1.45521,-0.41578 z m 0.11382,-3.16847 c 0.12698,-0.6446 -0.65793,-1.17825 -1.73299,-1.17825 -0.82093,0 -0.87547,0.0566 -0.87547,0.90846 0,0.79233 0.093,0.92025 0.7276,1.00063 1.01714,0.12882 1.76906,-0.16335 1.88086,-0.73084 z m 1.07121,4.04727 c -0.0135,-0.0364 -0.078,-1.28654 -0.14338,-2.77813 -0.078,-1.7804 -0.0242,-2.71198 0.15678,-2.71198 0.17368,0 0.27568,1.02792 0.27568,2.77813 0,1.52797 -0.0595,2.77812 -0.1323,2.77812 -0.0728,0 -0.14331,-0.0298 -0.15678,-0.0661 z m 0.81824,-2.71198 c 0,-1.6757 0.105,-2.77813 0.26459,-2.77813 0.15794,0 0.26458,1.01956 0.26458,2.52952 v 2.52951 l 0.96537,-0.0821 0.96537,-0.0821 -0.0553,-2.4474 c -0.0357,-1.58258 0.0439,-2.4474 0.22525,-2.4474 0.17794,0 0.28051,0.91911 0.28051,2.51355 0,1.38244 0.0952,2.51354 0.21163,2.51354 0.1164,0 1.25585,-1.1311 2.53211,-2.51354 1.27626,-1.38245 2.43118,-2.51355 2.56649,-2.51355 0.13602,0 0.24602,1.24222 0.24602,2.77813 0,1.67569 -0.10499,2.77812 -0.26458,2.77812 -0.14552,0 -0.26459,-0.35718 -0.26459,-0.79375 0,-0.7907 -0.006,-0.79375 -1.53458,-0.79375 -1.40281,0 -2.16958,0.29923 -2.16958,0.84667 0,0.11642 0.36421,0.21167 0.80936,0.21167 0.4722,0 0.74125,0.11022 0.64584,0.26458 -0.0921,0.14905 -1.36976,0.26458 -2.92603,0.26458 h -2.76251 z m 7.97916,-0.52953 c 0.0498,-0.80056 0.02,-1.45541 -0.0664,-1.45521 -0.18673,4.3e-4 -2.35652,2.54154 -2.35652,2.75981 0,0.083 0.52477,0.15097 1.16614,0.15097 h 1.16614 z m 1.21511,3.15653 c -0.10914,-0.11091 -0.19843,-1.43197 -0.19843,-2.93568 v -2.73403 h 1.07572 c 1.35848,0 2.09928,0.39039 2.09928,1.10628 0,0.52919 0.0342,0.52162 0.65132,-0.1443 1.37321,-1.48172 3.31177,-1.54167 4.4921,-0.13893 l 0.67741,0.80505 v -0.81405 c 0,-0.682 0.1026,-0.81405 0.63251,-0.81405 0.49689,0 0.85145,0.36774 1.65364,1.71517 0.56163,0.94334 1.08631,1.71725 1.16597,1.71979 0.0797,0.003 0.0956,-0.76928 0.0353,-1.71517 l -0.10951,-1.71979 h 0.72231 c 0.65207,0 0.71098,0.0772 0.60581,0.79375 -0.14474,0.98618 -0.0721,0.98705 0.75093,0.009 0.37748,-0.44862 1.03183,-0.85445 1.52765,-0.94747 1.06316,-0.19945 2.64605,0.41178 3.05754,1.18065 0.26845,0.50161 0.22386,0.55157 -0.49226,0.55157 -0.43309,0 -0.86103,-0.11906 -0.95096,-0.26458 -0.32011,-0.51795 -1.93116,-0.29773 -2.36625,0.32345 -1.20679,1.72293 0.47762,3.65302 2.31686,2.65478 l 0.84314,-0.45761 -1.18826,-0.13583 c -0.8542,-0.0976 -1.21297,-0.266 -1.27617,-0.59886 -0.077,-0.40561 0.1441,-0.46302 1.78357,-0.46302 2.07119,0 2.21487,0.156 1.47013,1.59616 -0.45732,0.88436 -1.62453,1.57884 -2.65354,1.57884 -0.879,0 -2.18969,-0.75777 -2.38724,-1.38016 -0.23966,-0.7551 -0.51633,-0.54609 -0.51355,0.38798 0.002,0.68216 -0.10598,0.85989 -0.52257,0.85989 -0.36623,0 -0.84661,-0.53779 -1.5875,-1.77721 -0.58431,-0.97746 -1.1219,-1.78115 -1.19466,-1.78597 -0.0728,-0.005 -0.1323,0.79492 -0.1323,1.77721 0,1.60665 -0.0529,1.78597 -0.52656,1.78597 -0.37683,0 -0.56734,-0.22572 -0.66994,-0.79375 -0.11598,-0.64206 -0.19232,-0.71485 -0.39948,-0.3809 -0.84005,1.35418 -2.68609,1.66782 -4.11958,0.69991 -0.86019,-0.58081 -0.91616,-0.58648 -1.29589,-0.13131 -0.41639,0.4991 -2.63296,0.93639 -2.97657,0.58722 z m 1.87812,-1.1414 c 0.535,-0.33905 0.2514,-1.20898 -0.42561,-1.30557 -0.4728,-0.0674 -0.59261,0.044 -0.59261,0.55122 0,0.94143 0.33333,1.18838 1.01822,0.75435 z m 5.39792,-0.50849 c 0.58497,-0.5024 0.59858,-1.84399 0.0251,-2.47763 -0.5456,-0.60289 -1.87562,-0.62717 -2.51784,-0.046 -0.61884,0.56004 -0.63069,1.99802 -0.0208,2.52929 0.89148,0.7766 1.60456,0.77499 2.51354,-0.006 z m -5.35781,-2.46063 c 0,-0.32447 -0.18636,-0.50086 -0.52916,-0.50086 -0.50449,0 -0.75066,0.74865 -0.37101,1.1283 0.29615,0.29615 0.90017,-0.12486 0.90017,-0.62744 z m 17.06563,3.99706 c -0.24429,-0.39527 0.0956,-0.79375 0.67707,-0.79375 0.33716,0 0.51355,0.18175 0.51355,0.52917 0,0.56119 -0.88567,0.75801 -1.19062,0.26458 z m -14.89602,-8.88228 0.0794,-1.47394 1.80007,-0.79179 c 1.77399,-0.78033 3.50181,-1.02844 4.19188,-0.60195 0.25892,0.16002 0.18418,0.25777 -0.28103,0.3676 -0.89769,0.21191 -1.28039,0.90109 -0.81306,1.46418 0.53817,0.64845 1.90435,0.34245 3.65212,-0.818 1.73549,-1.15231 2.7866,-1.49105 3.94964,-1.27286 0.92348,0.17325 1.18847,0.63196 0.36507,0.63196 -0.63625,0 -1.14499,0.60907 -0.9447,1.13101 0.21371,0.55692 0.97871,0.71127 2.16272,0.43637 1.84917,-0.42934 1.92458,-0.38708 1.92458,1.07845 v 1.32292 h -8.08299 -8.083 z m 5.12044,-4.96538 c -0.68703,-0.50238 -0.42359,-1.34862 0.45128,-1.4496 1.02678,-0.11851 0.89945,-0.5211 -0.23195,-0.73335 -0.74748,-0.14023 -1.39983,0.003 -2.97656,0.65161 -1.1106,0.45716 -2.10857,0.83023 -2.21771,0.82906 -0.10914,-10e-4 -0.19844,-0.83558 -0.19844,-1.85423 v -1.85208 h 8.06979 8.06979 v 1.94249 1.9425 l -1.02288,0.30646 c -1.3685,0.41002 -2.54966,0.38699 -2.91804,-0.0569 -0.42574,-0.513 -0.087,-1.19923 0.68795,-1.39373 0.48884,-0.12269 0.56617,-0.22284 0.30155,-0.39054 -0.83959,-0.53211 -2.24266,-0.22309 -4.20069,0.92516 -2.30728,1.35307 -3.16485,1.60785 -3.81409,1.13312 z"
       id="path3981"
       inkscape:connector-curvature="0" />
  </g>
</svg>
