<?xml version="1.0" encoding="UTF-8" standalone="no"?>
<!-- Created with Inkscape (http://www.inkscape.org/) -->

<svg
   xmlns:dc="http://purl.org/dc/elements/1.1/"
   xmlns:cc="http://creativecommons.org/ns#"
   xmlns:rdf="http://www.w3.org/1999/02/22-rdf-syntax-ns#"
   xmlns:svg="http://www.w3.org/2000/svg"
   xmlns="http://www.w3.org/2000/svg"
   xmlns:sodipodi="http://sodipodi.sourceforge.net/DTD/sodipodi-0.dtd"
   xmlns:inkscape="http://www.inkscape.org/namespaces/inkscape"
   width="28.550135mm"
   height="18.247499mm"
   viewBox="0 0 28.550135 18.247499"
   version="1.1"
   id="svg3989"
   inkscape:version="0.92.3 (2405546, 2018-03-11)"
   sodipodi:docname="converse.svg">
  <defs
     id="defs3983" />
  <sodipodi:namedview
     id="base"
     pagecolor="#ffffff"
     bordercolor="#666666"
     borderopacity="1.0"
     inkscape:pageopacity="0.0"
     inkscape:pageshadow="2"
     inkscape:zoom="1.4"
     inkscape:cx="112.2514"
     inkscape:cy="-12.405802"
     inkscape:document-units="mm"
     inkscape:current-layer="layer1"
     showgrid="false"
     fit-margin-top="0"
     fit-margin-left="0"
     fit-margin-right="0"
     fit-margin-bottom="0"
     inkscape:window-width="1366"
     inkscape:window-height="705"
     inkscape:window-x="-8"
     inkscape:window-y="-8"
     inkscape:window-maximized="1" />
  <metadata
     id="metadata3986">
    <rdf:RDF>
      <cc:Work
         rdf:about="">
        <dc:format>image/svg+xml</dc:format>
        <dc:type
           rdf:resource="http://purl.org/dc/dcmitype/StillImage" />
        <dc:title></dc:title>
      </cc:Work>
    </rdf:RDF>
  </metadata>
  <g
     inkscape:label="Layer 1"
     inkscape:groupmode="layer"
     id="layer1"
     transform="translate(-101.87059,-140.46993)">
    <path
       style="fill:#0e0e0e;stroke-width:0.26458335"
       d="m 101.96352,158.09256 c -0.0863,-0.34366 -0.11829,-1.02827 -0.0712,-1.52135 0.0829,-0.86778 0.12591,-0.89909 1.34241,-0.97715 0.75595,-0.0485 1.25678,0.0306 1.25678,0.19844 0,0.15349 -0.41673,0.27908 -0.92605,0.27908 -0.90399,0 -0.92604,0.0252 -0.92604,1.05833 0,1.03313 0.022,1.05833 0.92604,1.05833 0.50932,0 0.92605,0.11907 0.92605,0.26459 0,0.14552 -0.53352,0.26458 -1.18559,0.26458 -1.02544,0 -1.20677,-0.0844 -1.34241,-0.62485 z m 3.76272,0.44846 c -0.097,-0.097 -0.17639,-0.81139 -0.17639,-1.5875 v -1.41111 h 1.29461 c 1.39858,0 1.61581,0.21343 1.61581,1.5875 0,1.33214 -0.23154,1.5875 -1.43942,1.5875 -0.61502,0 -1.1976,-0.0794 -1.29461,-0.17639 z m 1.94028,-1.42868 c 0,-1.01763 -0.0394,-1.07138 -0.72761,-0.99219 -1.24206,0.14291 -1.18821,2.06809 0.0578,2.06809 0.60683,0 0.66977,-0.1011 0.66977,-1.0759 z m 1.80943,0.0171 -0.0896,-1.58798 1.25677,4.8e-4 1.25677,4.8e-4 v 1.5875 c 0,0.88194 -0.11759,1.5875 -0.26458,1.5875 -0.14552,0 -0.26459,-0.59531 -0.26459,-1.32292 0,-1.23472 -0.0441,-1.32291 -0.66146,-1.32291 -0.61736,0 -0.66145,0.0882 -0.66145,1.32291 0,1.866 -0.46364,1.65108 -0.57182,-0.26506 z m 3.92743,0.17566 c -0.53604,-1.7005 -0.53938,-1.76268 -0.0948,-1.76268 0.19273,0 0.53432,0.56555 0.7591,1.25677 l 0.40868,1.25677 0.35411,-1.25677 c 0.24723,-0.87747 0.49201,-1.25677 0.81104,-1.25677 0.42407,0 0.41838,0.1142 -0.0792,1.5875 -0.44042,1.30416 -0.64121,1.5875 -1.12496,1.5875 -0.4796,0 -0.67145,-0.26203 -1.03404,-1.41232 z m 3.63085,1.04571 c -0.0774,-0.20163 -0.1034,-0.88624 -0.0578,-1.52135 0.0828,-1.15438 0.0832,-1.15477 1.20731,-1.23611 1.30407,-0.0943 1.55364,0.40333 0.26459,0.52762 -0.47295,0.0456 -0.8599,0.20197 -0.8599,0.34749 0,0.14552 0.38695,0.30189 0.8599,0.34749 0.47294,0.0456 0.85989,0.18689 0.85989,0.31397 0,0.12708 -0.38695,0.26837 -0.85989,0.31397 -0.47295,0.0456 -0.8599,0.20197 -0.8599,0.34749 0,0.14552 0.38695,0.30189 0.8599,0.34749 1.22931,0.11853 1.06492,0.57855 -0.20674,0.57855 -0.66491,0 -1.11963,-0.13808 -1.20732,-0.36661 z m 3.58527,0.30046 c -0.006,-0.0364 -0.0364,-0.75595 -0.0667,-1.59905 l -0.0551,-1.5329 1.32346,0.0777 c 1.15289,0.0677 1.3346,0.15631 1.40992,0.68758 0.0476,0.33543 -0.0516,0.7762 -0.2203,0.97949 -0.16871,0.20329 -0.22936,0.61345 -0.13477,0.91148 0.2475,0.77982 -0.34124,0.68003 -0.70557,-0.1196 -0.16576,-0.3638 -0.46086,-0.66146 -0.65579,-0.66146 -0.20164,0 -0.3544,0.28512 -0.3544,0.66146 0,0.3638 -0.11907,0.66146 -0.26459,0.66146 -0.14552,0 -0.2698,-0.0298 -0.27618,-0.0661 z m 1.86368,-2.18281 c 0,-0.24694 -0.24988,-0.39687 -0.66146,-0.39687 -0.41157,0 -0.66145,0.14993 -0.66145,0.39687 0,0.24695 0.24988,0.39688 0.66145,0.39688 0.41158,0 0.66146,-0.14993 0.66146,-0.39688 z m 1.85209,2.00114 c 0,-0.1363 0.38695,-0.28513 0.85989,-0.33073 1.06701,-0.10288 1.09869,-0.56552 0.0512,-0.74697 -0.65825,-0.11401 -0.77875,-0.25731 -0.77875,-0.92604 0,-0.74161 0.0704,-0.79624 1.12448,-0.87251 1.30407,-0.0943 1.55364,0.40333 0.26458,0.52762 -1.06704,0.10288 -1.09881,0.56599 -0.0511,0.74552 0.65113,0.11159 0.79233,0.27417 0.86165,0.99219 0.0826,0.85526 0.078,0.85874 -1.12447,0.85874 -0.66407,0 -1.20739,-0.11152 -1.20739,-0.24782 z m 3.81146,-0.11879 c -0.0774,-0.20163 -0.1034,-0.88624 -0.0578,-1.52135 0.0828,-1.15438 0.0832,-1.15477 1.20731,-1.23611 0.66532,-0.0481 1.12448,0.0329 1.12448,0.19844 0,0.15389 -0.35718,0.2798 -0.79375,0.2798 -0.52916,0 -0.79375,0.13229 -0.79375,0.39687 0,0.26458 0.26459,0.39688 0.79375,0.39688 1.06925,0 1.01503,0.4743 -0.0661,0.57855 -0.47295,0.0456 -0.8599,0.20197 -0.8599,0.34749 0,0.14552 0.38695,0.30189 0.8599,0.34749 1.22931,0.11853 1.06492,0.57855 -0.20674,0.57855 -0.66491,0 -1.11963,-0.13808 -1.20732,-0.36661 z m -13.20417,-5.17246 c -1.20633,-0.29368 -2.29145,-0.93675 -3.22774,-1.91284 -3.11747,-3.24999 -1.73904,-8.91114 2.54241,-10.44156 3.98998,-1.42624 8.46594,1.64623 8.48473,5.82423 0.009,1.99071 -0.51761,3.3346 -1.84128,4.69937 -1.6373,1.68812 -3.80639,2.35464 -5.95812,1.8308 z m 3.72288,-1.31174 c 2.29904,-1.04419 3.68245,-3.93305 3.03496,-6.33763 -0.38305,-1.42252 -2.10339,-3.34395 -3.36754,-3.76116 -1.47292,-0.48611 -3.82765,-0.20236 -5.05365,0.60896 -1.18664,0.78529 -2.43859,2.98879 -2.43622,4.2879 0.007,4.08836 4.17393,6.85906 7.82245,5.20193 z m -4.64892,-1.70647 c 0,-0.0438 0.19661,-0.65673 0.43691,-1.36198 0.48176,-1.41387 0.51389,-1.34758 -1.24503,-2.56842 -0.64285,-0.4462 -0.63728,-0.44924 0.84981,-0.46303 l 1.49691,-0.0139 0.33905,-1.32292 c 0.18648,-0.7276 0.4131,-1.32292 0.5036,-1.32292 0.0905,0 0.31711,0.59532 0.50359,1.32292 l 0.33906,1.32292 1.4969,0.0139 c 1.48709,0.0138 1.49266,0.0168 0.84981,0.46302 -1.71779,1.1923 -1.73424,1.22027 -1.37234,2.33275 0.18371,0.56475 0.40211,1.19474 0.48532,1.39998 0.0832,0.20523 -0.4027,-0.0247 -1.0798,-0.51095 l -1.23109,-0.8841 -1.18635,0.83622 c -0.6525,0.45992 -1.18635,0.80035 -1.18635,0.75651 z"
       id="path4002"
       inkscape:connector-curvature="0" />
  </g>
</svg>
