<?xml version="1.0" encoding="UTF-8" standalone="no"?>
<!-- Created with Inkscape (http://www.inkscape.org/) -->

<svg
   xmlns:dc="http://purl.org/dc/elements/1.1/"
   xmlns:cc="http://creativecommons.org/ns#"
   xmlns:rdf="http://www.w3.org/1999/02/22-rdf-syntax-ns#"
   xmlns:svg="http://www.w3.org/2000/svg"
   xmlns="http://www.w3.org/2000/svg"
   xmlns:sodipodi="http://sodipodi.sourceforge.net/DTD/sodipodi-0.dtd"
   xmlns:inkscape="http://www.inkscape.org/namespaces/inkscape"
   width="4.1983471mm"
   height="4.2333298mm"
   viewBox="0 0 4.1983471 4.2333298"
   version="1.1"
   id="svg4241"
   inkscape:version="0.92.3 (2405546, 2018-03-11)"
   sodipodi:docname="dribbble.svg">
  <defs
     id="defs4235" />
  <sodipodi:namedview
     id="base"
     pagecolor="#ffffff"
     bordercolor="#666666"
     borderopacity="1.0"
     inkscape:pageopacity="0.0"
     inkscape:pageshadow="2"
     inkscape:zoom="3.959798"
     inkscape:cx="86.155488"
     inkscape:cy="9.7602456"
     inkscape:document-units="mm"
     inkscape:current-layer="layer1"
     showgrid="false"
     fit-margin-top="0"
     fit-margin-left="0"
     fit-margin-right="0"
     fit-margin-bottom="0"
     inkscape:window-width="1366"
     inkscape:window-height="705"
     inkscape:window-x="-8"
     inkscape:window-y="-8"
     inkscape:window-maximized="1" />
  <metadata
     id="metadata4238">
    <rdf:RDF>
      <cc:Work
         rdf:about="">
        <dc:format>image/svg+xml</dc:format>
        <dc:type
           rdf:resource="http://purl.org/dc/dcmitype/StillImage" />
        <dc:title></dc:title>
      </cc:Work>
    </rdf:RDF>
  </metadata>
  <g
     inkscape:label="Layer 1"
     inkscape:groupmode="layer"
     id="layer1"
     transform="translate(-182.21076,-240.25039)">
    <path
       style="fill:#fefefe;stroke-width:0.26458332"
       d="m 182.82521,243.83429 c -1.31238,-1.31238 -0.38243,-3.5839 1.46724,-3.5839 1.08772,0 2.11666,1.02894 2.11666,2.11667 0,1.08772 -1.02894,2.11666 -2.11666,2.11666 -0.51551,0 -1.05787,-0.24006 -1.46724,-0.64943 z m 1.99235,-0.0782 c -0.002,-0.10914 -0.11221,-0.36938 -0.24442,-0.5783 -0.19844,-0.3136 -0.3126,-0.31991 -0.65449,-0.0362 -0.22777,0.18904 -0.34888,0.44927 -0.26913,0.5783 0.17578,0.28443 1.17374,0.31533 1.16804,0.0362 z m 1.06239,-0.87551 c 0,-0.13693 -0.1786,-0.24897 -0.39688,-0.24897 -0.40915,0 -0.52565,0.3122 -0.22768,0.61017 0.21139,0.21138 0.62456,-0.0276 0.62456,-0.3612 z m -1.5875,-0.63045 c 0,-0.0308 -0.35719,-0.004 -0.79375,0.0605 -0.76826,0.11275 -0.96874,0.32242 -0.63114,0.66003 0.1317,0.13169 1.42489,-0.52221 1.42489,-0.72049 z m 1.46235,-0.40071 c -0.086,-0.13917 -0.33116,-0.18596 -0.54479,-0.10399 -0.54692,0.20988 -0.48247,0.35701 0.15638,0.35701 0.29963,0 0.47442,-0.11386 0.38841,-0.25302 z m -1.89584,-0.40844 c -0.0838,-0.21828 -0.24404,-0.39687 -0.35617,-0.39687 -0.11214,0 -0.3521,0.17859 -0.53326,0.39687 -0.27837,0.33542 -0.22321,0.39688 0.35617,0.39688 0.50068,0 0.64449,-0.10703 0.53326,-0.39688 z m 1.08365,-0.41515 c -0.0837,-0.13547 -0.33837,-0.2463 -0.56588,-0.2463 -0.33634,0 -0.35255,0.0736 -0.0867,0.39396 0.34161,0.41162 0.91767,0.28127 0.65258,-0.14766 z"
       id="path4254"
       inkscape:connector-curvature="0" />
  </g>
</svg>
