<?xml version="1.0" encoding="UTF-8" standalone="no"?>
<!-- Created with Inkscape (http://www.inkscape.org/) -->

<svg
   xmlns:dc="http://purl.org/dc/elements/1.1/"
   xmlns:cc="http://creativecommons.org/ns#"
   xmlns:rdf="http://www.w3.org/1999/02/22-rdf-syntax-ns#"
   xmlns:svg="http://www.w3.org/2000/svg"
   xmlns="http://www.w3.org/2000/svg"
   xmlns:sodipodi="http://sodipodi.sourceforge.net/DTD/sodipodi-0.dtd"
   xmlns:inkscape="http://www.inkscape.org/namespaces/inkscape"
   width="10.863768mm"
   height="13.248504mm"
   viewBox="0 0 10.863768 13.248504"
   version="1.1"
   id="svg3731"
   inkscape:version="0.92.3 (2405546, 2018-03-11)"
   sodipodi:docname="game.svg">
  <defs
     id="defs3725" />
  <sodipodi:namedview
     id="base"
     pagecolor="#ffffff"
     bordercolor="#666666"
     borderopacity="1.0"
     inkscape:pageopacity="0.0"
     inkscape:pageshadow="2"
     inkscape:zoom="0.35"
     inkscape:cx="46.244236"
     inkscape:cy="-106.39203"
     inkscape:document-units="mm"
     inkscape:current-layer="layer1"
     showgrid="false"
     fit-margin-top="0"
     fit-margin-left="0"
     fit-margin-right="0"
     fit-margin-bottom="0"
     inkscape:window-width="1366"
     inkscape:window-height="705"
     inkscape:window-x="-8"
     inkscape:window-y="-8"
     inkscape:window-maximized="1" />
  <metadata
     id="metadata3728">
    <rdf:RDF>
      <cc:Work
         rdf:about="">
        <dc:format>image/svg+xml</dc:format>
        <dc:type
           rdf:resource="http://purl.org/dc/dcmitype/StillImage" />
        <dc:title></dc:title>
      </cc:Work>
    </rdf:RDF>
  </metadata>
  <g
     inkscape:label="Layer 1"
     inkscape:groupmode="layer"
     id="layer1"
     transform="translate(-93.597879,-107.43527)">
    <path
       style="fill:#959595;stroke-width:0.26458335"
       d="m 94.134973,120.14494 c -0.495569,-0.49557 -0.529167,-0.88194 -0.529167,-6.08542 0,-7.16292 -0.449635,-6.61458 5.423958,-6.61458 5.873596,0 5.423956,-0.54834 5.423956,6.61458 0,7.16292 0.44964,6.61459 -5.423956,6.61459 -4.012847,0 -4.408386,-0.0428 -4.894791,-0.52917 z m 9.207497,-0.58208 c 0.44839,-0.44839 0.44839,-10.55829 0,-11.00667 -0.44384,-0.44384 -8.181573,-0.44384 -8.625414,0 -0.448383,0.44838 -0.448383,10.55828 0,11.00667 0.443841,0.44384 8.181574,0.44384 8.625414,0 z m -7.090831,-0.84227 c 0,-0.20131 -0.238125,-0.42829 -0.529166,-0.5044 -0.596553,-0.156 -0.725316,-0.71708 -0.164564,-0.71708 0.200532,0 0.55316,-0.26789 0.783618,-0.59532 l 0.419015,-0.59531 0.173283,0.59531 c 0.09531,0.32743 0.337989,0.59532 0.539298,0.59532 0.529931,0 0.44405,0.31424 -0.271159,0.99218 -0.725352,0.68756 -0.950325,0.74185 -0.950325,0.2293 z m 3.351389,0.18963 c -0.304438,-0.30444 -0.19268,-0.61736 0.220487,-0.61736 0.218285,0 0.396875,0.17859 0.396875,0.39687 0,0.41317 -0.312923,0.52493 -0.617362,0.22049 z m 2.109472,-0.007 c -0.29797,-0.29796 -0.18147,-0.61016 0.22768,-0.61016 0.21828,0 0.39688,0.11203 0.39688,0.24897 0,0.33363 -0.41317,0.57258 -0.62456,0.3612 z m -1.70598,-1.95292 c 0.0522,-0.15644 0.20792,-0.28443 0.34616,-0.28443 0.13825,0 0.29402,0.12799 0.34616,0.28443 0.0521,0.15643 -0.10362,0.28442 -0.34616,0.28442 -0.24253,0 -0.398307,-0.12799 -0.34616,-0.28442 z m 2.06595,0.0198 c 0,-0.14552 0.1786,-0.26458 0.39688,-0.26458 0.21828,0 0.39687,0.11906 0.39687,0.26458 0,0.14552 -0.17859,0.26458 -0.39687,0.26458 -0.21828,0 -0.39688,-0.11906 -0.39688,-0.26458 z m -6.718565,-1.74143 c -0.302756,-0.78897 -0.175792,-5.54588 0.156901,-5.87857 0.399959,-0.39996 6.109814,-0.43634 6.843644,-0.0436 0.45298,0.24243 0.51177,0.57431 0.51177,2.88878 0,1.43819 -0.0723,2.80322 -0.1606,3.0334 -0.23988,0.62512 -7.111835,0.62512 -7.351715,0 z m 6.663825,-2.73382 c 0.0558,-1.60249 -0.0183,-2.28712 -0.26458,-2.44335 -0.51006,-0.32358 -5.174309,-0.27594 -5.378802,0.0549 -0.13056,0.21125 -0.228961,3.57376 -0.135308,4.62365 0.0069,0.0777 1.292521,0.10745 2.85687,0.0662 l 2.84427,-0.0751 z"
       id="path3743"
       inkscape:connector-curvature="0" />
  </g>
</svg>
