<?xml version="1.0" encoding="UTF-8" standalone="no"?>
<!-- Created with Inkscape (http://www.inkscape.org/) -->

<svg
   xmlns:dc="http://purl.org/dc/elements/1.1/"
   xmlns:cc="http://creativecommons.org/ns#"
   xmlns:rdf="http://www.w3.org/1999/02/22-rdf-syntax-ns#"
   xmlns:svg="http://www.w3.org/2000/svg"
   xmlns="http://www.w3.org/2000/svg"
   xmlns:sodipodi="http://sodipodi.sourceforge.net/DTD/sodipodi-0.dtd"
   xmlns:inkscape="http://www.inkscape.org/namespaces/inkscape"
   width="3.8711743mm"
   height="3.6642058mm"
   viewBox="0 0 3.8711743 3.6642058"
   version="1.1"
   id="svg4262"
   inkscape:version="0.92.3 (2405546, 2018-03-11)"
   sodipodi:docname="google.svg">
  <defs
     id="defs4256" />
  <sodipodi:namedview
     id="base"
     pagecolor="#ffffff"
     bordercolor="#666666"
     borderopacity="1.0"
     inkscape:pageopacity="0.0"
     inkscape:pageshadow="2"
     inkscape:zoom="7.9195959"
     inkscape:cx="-8.9912979"
     inkscape:cy="26.76293"
     inkscape:document-units="mm"
     inkscape:current-layer="layer1"
     showgrid="false"
     fit-margin-top="0"
     fit-margin-left="0"
     fit-margin-right="0"
     fit-margin-bottom="0"
     inkscape:window-width="1366"
     inkscape:window-height="705"
     inkscape:window-x="-8"
     inkscape:window-y="-8"
     inkscape:window-maximized="1" />
  <metadata
     id="metadata4259">
    <rdf:RDF>
      <cc:Work
         rdf:about="">
        <dc:format>image/svg+xml</dc:format>
        <dc:type
           rdf:resource="http://purl.org/dc/dcmitype/StillImage" />
        <dc:title></dc:title>
      </cc:Work>
    </rdf:RDF>
  </metadata>
  <g
     inkscape:label="Layer 1"
     inkscape:groupmode="layer"
     id="layer1"
     transform="translate(-199.58889,-241.00628)">
    <path
       style="fill:#fefefe;stroke-width:0.26458335"
       d="m 199.58889,244.15063 c 0,-0.28592 0.24796,-0.65256 0.55101,-0.81475 0.50668,-0.27116 0.5153,-0.32102 0.10717,-0.61945 -0.26449,-0.1934 -0.40697,-0.58586 -0.35258,-0.97118 0.0795,-0.56311 0.24507,-0.65604 1.2819,-0.71942 0.86995,-0.0532 1.08373,-8.2e-4 0.79375,0.19439 -0.34433,0.23179 -0.33849,0.2677 0.0441,0.27122 0.24253,0.002 0.49022,-0.14372 0.55043,-0.32432 0.0787,-0.23611 0.23888,-0.19894 0.57011,0.13229 0.42945,0.42945 0.43086,0.49045 0.0209,0.90044 -0.3714,0.3714 -0.4757,0.38169 -0.67079,0.0662 -0.19436,-0.31437 -0.30316,-0.3015 -0.6859,0.0811 -0.43015,0.43003 -0.42893,0.48349 0.0225,0.98233 0.51853,0.57297 0.39531,1.34101 -0.21514,1.34101 -0.25015,0 -0.33302,-0.1812 -0.24203,-0.52917 0.10527,-0.40255 0.008,-0.52917 -0.40603,-0.52917 -0.7398,0 -0.95643,0.43547 -0.38277,0.76945 0.40417,0.23529 0.36856,0.2739 -0.25902,0.28084 -0.5496,0.006 -0.7276,-0.11913 -0.7276,-0.51181 z m 1.47149,-2.57582 c -0.12289,-0.32025 -0.24311,-0.35521 -0.46353,-0.13478 -0.22043,0.22043 -0.20354,0.41097 0.0652,0.73471 0.41037,0.49448 0.66893,0.1051 0.39838,-0.59993 z"
       id="path4275"
       inkscape:connector-curvature="0" />
  </g>
</svg>
