<?xml version="1.0" encoding="UTF-8" standalone="no"?>
<!-- Created with Inkscape (http://www.inkscape.org/) -->

<svg
   xmlns:dc="http://purl.org/dc/elements/1.1/"
   xmlns:cc="http://creativecommons.org/ns#"
   xmlns:rdf="http://www.w3.org/1999/02/22-rdf-syntax-ns#"
   xmlns:svg="http://www.w3.org/2000/svg"
   xmlns="http://www.w3.org/2000/svg"
   xmlns:sodipodi="http://sodipodi.sourceforge.net/DTD/sodipodi-0.dtd"
   xmlns:inkscape="http://www.inkscape.org/namespaces/inkscape"
   width="36.69883mm"
   height="5.5564799mm"
   viewBox="0 0 36.69883 5.5564799"
   version="1.1"
   id="svg4010"
   inkscape:version="0.92.3 (2405546, 2018-03-11)"
   sodipodi:docname="gucci.svg">
  <defs
     id="defs4004" />
  <sodipodi:namedview
     id="base"
     pagecolor="#ffffff"
     bordercolor="#666666"
     borderopacity="1.0"
     inkscape:pageopacity="0.0"
     inkscape:pageshadow="2"
     inkscape:zoom="1.4"
     inkscape:cx="255.93686"
     inkscape:cy="27.900871"
     inkscape:document-units="mm"
     inkscape:current-layer="layer1"
     showgrid="false"
     fit-margin-top="0"
     fit-margin-left="0"
     fit-margin-right="0"
     fit-margin-bottom="0"
     inkscape:window-width="1366"
     inkscape:window-height="705"
     inkscape:window-x="-8"
     inkscape:window-y="-8"
     inkscape:window-maximized="1" />
  <metadata
     id="metadata4007">
    <rdf:RDF>
      <cc:Work
         rdf:about="">
        <dc:format>image/svg+xml</dc:format>
        <dc:type
           rdf:resource="http://purl.org/dc/dcmitype/StillImage" />
        <dc:title></dc:title>
      </cc:Work>
    </rdf:RDF>
  </metadata>
  <g
     inkscape:label="Layer 1"
     inkscape:groupmode="layer"
     id="layer1"
     transform="translate(-142.01308,-228.51433)">
    <path
       style="fill:#2e2e2e;stroke-width:0.26458335"
       d="m 142.98636,233.31066 c -0.41792,-0.41791 -0.83414,-1.05585 -0.92494,-1.41763 -0.24812,-0.9886 0.49098,-2.48032 1.48313,-2.99338 1.49621,-0.77372 3.96163,-0.037 3.93848,1.17697 -0.007,0.34742 -0.0582,0.33579 -0.2916,-0.0658 -0.15596,-0.26829 -0.69358,-0.65913 -1.19471,-0.86851 -1.27263,-0.53174 -2.21781,-0.0571 -2.70607,1.35904 -0.71279,2.06728 0.7158,3.80028 2.58394,3.13454 0.55086,-0.1963 0.68993,-0.41794 0.68789,-1.09634 -0.002,-0.68646 0.10381,-0.85029 0.54949,-0.85029 0.46391,0 0.53329,0.12779 0.43456,0.80047 -0.15752,1.07329 -0.96523,1.58078 -2.51592,1.58078 -1.0616,0 -1.41621,-0.13181 -2.04425,-0.75985 z m 9.39951,0.4482 c -0.29104,-0.16256 -0.5887,-0.34712 -0.66146,-0.41015 -0.0728,-0.063 -0.19182,-1.11716 -0.26458,-2.34253 -0.12443,-2.09558 -0.10085,-2.22796 0.39688,-2.22823 0.48659,-2.8e-4 0.52216,0.14701 0.44215,1.83079 -0.0479,1.0071 0.0383,2.06523 0.19146,2.35141 0.36825,0.68808 1.51389,0.952 2.44977,0.56434 0.74297,-0.30774 0.75307,-0.34167 0.75307,-2.52879 0,-1.30151 0.10925,-2.21686 0.26459,-2.21686 0.15414,0 0.26458,0.87555 0.26458,2.09747 0,1.95078 -0.0487,2.13581 -0.69714,2.64583 -0.76731,0.60356 -2.2785,0.71752 -3.13932,0.23672 z m 8.67901,-0.005 c -0.31977,-0.15449 -0.77734,-0.69379 -1.01681,-1.19844 -0.86481,-1.82245 0.17033,-3.68857 2.19683,-3.96038 1.37614,-0.18458 2.97572,0.53695 2.96738,1.3385 l -0.006,0.56517 -0.45714,-0.58173 c -1.29489,-1.6478 -3.54161,-1.13964 -3.92182,0.88704 -0.4619,2.46214 1.72248,3.8772 3.57667,2.317 0.60956,-0.5129 0.81405,-0.58314 0.81405,-0.27959 0,1.03704 -2.67777,1.62531 -4.15328,0.91243 z m 8.6805,-0.36069 c -2.00451,-1.68668 -0.71681,-4.87884 1.9681,-4.87884 1.14217,0 2.50136,0.77325 2.49463,1.41921 l -0.006,0.56517 -0.45714,-0.58173 c -0.92254,-1.17398 -2.59578,-1.30135 -3.45737,-0.2632 -0.57056,0.68748 -0.6652,2.14548 -0.19793,3.0491 0.68872,1.33182 2.46733,1.45887 3.58772,0.25627 0.43728,-0.46936 0.53649,-0.49601 0.53649,-0.14409 0,1.32875 -3.09993,1.72979 -4.46862,0.57811 z m 8.04049,-1.96775 c 0,-2.34308 0.0529,-2.64567 0.46302,-2.64606 0.41014,-4e-4 0.46302,0.30177 0.46302,2.64539 0,2.34336 -0.0529,2.64586 -0.46302,2.64606 -0.41011,2e-4 -0.46302,-0.30206 -0.46302,-2.64539 z"
       id="path4023"
       inkscape:connector-curvature="0" />
  </g>
</svg>
