<?xml version="1.0" encoding="UTF-8" standalone="no"?>
<!-- Created with Inkscape (http://www.inkscape.org/) -->

<svg
   xmlns:dc="http://purl.org/dc/elements/1.1/"
   xmlns:cc="http://creativecommons.org/ns#"
   xmlns:rdf="http://www.w3.org/1999/02/22-rdf-syntax-ns#"
   xmlns:svg="http://www.w3.org/2000/svg"
   xmlns="http://www.w3.org/2000/svg"
   xmlns:sodipodi="http://sodipodi.sourceforge.net/DTD/sodipodi-0.dtd"
   xmlns:inkscape="http://www.inkscape.org/namespaces/inkscape"
   width="39.91227mm"
   height="6.3253827mm"
   viewBox="0 0 39.91227 6.3253827"
   version="1.1"
   id="svg4031"
   inkscape:version="0.92.3 (2405546, 2018-03-11)"
   sodipodi:docname="klein.svg">
  <defs
     id="defs4025" />
  <sodipodi:namedview
     id="base"
     pagecolor="#ffffff"
     bordercolor="#666666"
     borderopacity="1.0"
     inkscape:pageopacity="0.0"
     inkscape:pageshadow="2"
     inkscape:zoom="0.98994949"
     inkscape:cx="254.19064"
     inkscape:cy="7.1768298"
     inkscape:document-units="mm"
     inkscape:current-layer="layer1"
     showgrid="false"
     fit-margin-top="0"
     fit-margin-left="0"
     fit-margin-right="0"
     fit-margin-bottom="0"
     inkscape:window-width="1366"
     inkscape:window-height="705"
     inkscape:window-x="-8"
     inkscape:window-y="-8"
     inkscape:window-maximized="1" />
  <metadata
     id="metadata4028">
    <rdf:RDF>
      <cc:Work
         rdf:about="">
        <dc:format>image/svg+xml</dc:format>
        <dc:type
           rdf:resource="http://purl.org/dc/dcmitype/StillImage" />
        <dc:title></dc:title>
      </cc:Work>
    </rdf:RDF>
  </metadata>
  <g
     inkscape:label="Layer 1"
     inkscape:groupmode="layer"
     id="layer1"
     transform="translate(-33.696584,-205.41339)">
    <path
       style="fill:#171717;stroke-width:0.26458332"
       d="m 35.219436,211.26429 c -0.813853,-0.50461 -1.522852,-1.79784 -1.522852,-2.77771 0,-0.8302 1.015432,-2.34215 1.860025,-2.76952 1.245189,-0.63007 3.049385,-0.24605 3.951636,0.84109 0.60462,0.72853 0.09082,0.74707 -0.957712,0.0346 -1.161065,-0.78897 -1.666938,-0.84161 -2.742578,-0.28537 -0.961142,0.49703 -1.317621,1.14133 -1.317621,2.38147 0,2.04107 2.44253,3.23873 4.040947,1.98142 1.053891,-0.82899 1.482433,-0.6041 0.518941,0.27234 -1.015822,0.92403 -2.639428,1.06038 -3.830786,0.3217 z m 6.017773,0.14472 c -0.841324,-0.4825 -1.173172,-1.06578 -1.18221,-2.07794 -0.01528,-1.71157 1.762827,-2.85705 3.17599,-2.046 0.632221,0.36284 0.728994,0.36044 0.991497,-0.0246 0.221195,-0.32444 0.292608,0.17559 0.298041,2.08686 0.0059,2.06701 -0.05169,2.43622 -0.324014,2.07832 -0.287433,-0.37776 -0.397804,-0.3865 -0.835905,-0.0661 -0.606406,0.44341 -1.404125,0.46202 -2.123399,0.0495 z m 2.248958,-0.73876 c 0.692657,-0.69266 0.672774,-1.79741 -0.04612,-2.56264 -0.723108,-0.76971 -1.626696,-0.78266 -2.324823,-0.0333 -1.073156,1.1519 -0.327897,3.12511 1.180318,3.12511 0.363803,0 0.899584,-0.23812 1.190625,-0.52916 z m 1.852084,-1.98438 c 0,-1.85208 0.103532,-3.04271 0.264583,-3.04271 0.161051,0 0.264584,1.19063 0.264584,3.04271 0,1.85208 -0.103533,3.04271 -0.264584,3.04271 -0.161051,0 -0.264583,-1.19063 -0.264583,-3.04271 z m 2.226431,2.10356 c -1.180711,-2.82584 -1.428783,-3.60156 -1.1187,-3.4982 0.178806,0.0596 0.627793,0.84362 0.997748,1.74227 0.369955,0.89865 0.749035,1.63455 0.8424,1.63533 0.09337,7.7e-4 0.241689,-0.28519 0.329609,-0.63549 0.319147,-1.27158 1.222005,-3.09752 1.459142,-2.95096 0.133648,0.0826 -0.163044,1.12753 -0.659317,2.32206 -0.496272,1.19454 -0.902313,2.20614 -0.902313,2.24801 0,0.0419 -0.125138,0.0761 -0.278084,0.0761 -0.152946,0 -0.454665,-0.42262 -0.670485,-0.93915 z m 3.065236,-1.30981 c 0,-1.32292 0.108946,-2.24896 0.264583,-2.24896 0.155637,0 0.264583,0.92604 0.264583,2.24896 0,1.32292 -0.108946,2.24896 -0.264583,2.24896 -0.155637,0 -0.264583,-0.92604 -0.264583,-2.24896 z m 1.322916,-0.16469 c 0,-1.93455 0.06741,-2.3577 0.339603,-2.1318 0.215285,0.17867 0.481638,0.19202 0.727604,0.0365 0.634128,-0.40106 1.440775,-0.28897 2.057903,0.28597 0.489465,0.45601 0.579057,0.82685 0.579057,2.39687 0,1.17088 -0.09779,1.79695 -0.264583,1.69387 -0.145521,-0.0899 -0.264584,-0.85242 -0.264584,-1.6944 0,-1.14707 -0.121307,-1.64066 -0.483854,-1.96876 -1.206726,-1.09207 -2.161979,-0.13653 -2.161979,2.16264 0,0.91215 -0.116777,1.63281 -0.264583,1.63281 -0.157054,0 -0.264584,-0.98094 -0.264584,-2.41365 z m 6.085417,-0.62906 c 0,-1.85208 0.103533,-3.04271 0.264583,-3.04271 0.147221,0 0.268519,0.73352 0.273455,1.65365 l 0.0089,1.65364 0.848749,-1.05833 c 1.271238,-1.58514 2.312778,-2.59747 2.490049,-2.42019 0.08679,0.0868 -0.254392,0.66683 -0.758182,1.28899 -1.420011,1.75366 -1.415873,1.69087 -0.216149,3.27989 0.607796,0.80502 1.024686,1.54386 0.926428,1.64187 -0.180232,0.17976 -0.838719,-0.49254 -1.903269,-1.94321 -0.569035,-0.77543 -0.585974,-0.7799 -0.983772,-0.25985 -0.222623,0.29104 -0.408555,0.91612 -0.413183,1.38906 -0.0046,0.47295 -0.127477,0.8599 -0.272998,0.8599 -0.16105,0 -0.264583,-1.19063 -0.264583,-3.04271 z m 4.402529,2.85913 c -0.09306,-0.0931 -0.169196,-1.45904 -0.169196,-3.03552 0,-2.37145 0.06852,-2.86632 0.396875,-2.86632 0.328594,0 0.396875,0.49804 0.396875,2.89481 0,2.64601 -0.169497,3.46209 -0.624554,3.00703 z m 1.662536,-0.58982 c -0.527844,-0.52784 -0.773398,-1.03834 -0.773398,-1.60785 0,-1.13821 1.243036,-2.38125 2.38125,-2.38125 0.973447,0 2.38125,1.23302 2.38125,2.08561 0,0.49229 -0.18851,0.54546 -2.182813,0.61567 l -2.182812,0.0768 0.715579,0.72761 c 0.861726,0.87621 1.684427,0.92651 2.507472,0.1533 0.336227,-0.31587 0.701088,-0.48434 0.810802,-0.37437 0.109715,0.10997 -0.13458,0.48747 -0.542877,0.83889 -1.026552,0.88355 -2.144723,0.83528 -3.114453,-0.13445 z m 3.303014,-2.20316 c -0.738603,-1.29831 -1.642605,-1.58176 -2.694623,-0.8449 -1.124966,0.78796 -0.74662,1.17563 1.147368,1.17563 1.312283,0 1.689532,-0.0806 1.547255,-0.33073 z m 1.215255,0.5797 c 0,-1.53054 0.09563,-2.33777 0.264583,-2.23335 0.145521,0.0899 0.264583,1.16853 0.264583,2.39687 0,1.3125 -0.10909,2.23334 -0.264583,2.23334 -0.156919,0 -0.264583,-0.97534 -0.264583,-2.39686 z m 1.322916,-0.0217 c 0,-1.75715 0.08095,-2.36883 0.286314,-2.16347 0.205364,0.20536 0.502994,0.20453 1.052687,-0.003 0.645348,-0.24359 0.882168,-0.20302 1.499624,0.25693 0.665104,0.49545 0.740476,0.72195 0.810988,2.43713 0.04879,1.18678 -0.0251,1.89092 -0.198438,1.89092 -0.162827,0 -0.276175,-0.68901 -0.276175,-1.67878 0,-1.29037 -0.11195,-1.7801 -0.483854,-2.11667 -1.198499,-1.08463 -2.161979,-0.21711 -2.161979,1.94665 0,0.85414 -0.119063,1.62657 -0.264583,1.71651 -0.169111,0.10452 -0.264584,-0.72045 -0.264584,-2.28626 z m -1.322916,-3.12209 c 0,-0.29962 0.119062,-0.54478 0.264583,-0.54478 0.145521,0 0.264583,0.17157 0.264583,0.38126 0,0.2097 -0.119062,0.45485 -0.264583,0.54478 -0.145521,0.0899 -0.264583,-0.0816 -0.264583,-0.38126 z m -17.991667,-0.1479 c 0,-0.21828 0.119062,-0.39688 0.264583,-0.39688 0.145521,0 0.264583,0.1786 0.264583,0.39688 0,0.21828 -0.119062,0.39687 -0.264583,0.39687 -0.145521,0 -0.264583,-0.17859 -0.264583,-0.39687 z"
       id="path4044"
       inkscape:connector-curvature="0" />
  </g>
</svg>
