<?xml version="1.0" encoding="UTF-8" standalone="no"?>
<!-- Created with Inkscape (http://www.inkscape.org/) -->

<svg
   xmlns:dc="http://purl.org/dc/elements/1.1/"
   xmlns:cc="http://creativecommons.org/ns#"
   xmlns:rdf="http://www.w3.org/1999/02/22-rdf-syntax-ns#"
   xmlns:svg="http://www.w3.org/2000/svg"
   xmlns="http://www.w3.org/2000/svg"
   xmlns:sodipodi="http://sodipodi.sourceforge.net/DTD/sodipodi-0.dtd"
   xmlns:inkscape="http://www.inkscape.org/namespaces/inkscape"
   width="28.782022mm"
   height="13.655549mm"
   viewBox="0 0 28.782022 13.655549"
   version="1.1"
   id="svg4052"
   inkscape:version="0.92.3 (2405546, 2018-03-11)"
   sodipodi:docname="levis.svg">
  <defs
     id="defs4046" />
  <sodipodi:namedview
     id="base"
     pagecolor="#ffffff"
     bordercolor="#666666"
     borderopacity="1.0"
     inkscape:pageopacity="0.0"
     inkscape:pageshadow="2"
     inkscape:zoom="2.8"
     inkscape:cx="188.40026"
     inkscape:cy="43.588766"
     inkscape:document-units="mm"
     inkscape:current-layer="layer1"
     showgrid="false"
     fit-margin-top="0"
     fit-margin-left="0"
     fit-margin-right="0"
     fit-margin-bottom="0"
     inkscape:window-width="1366"
     inkscape:window-height="705"
     inkscape:window-x="-8"
     inkscape:window-y="-8"
     inkscape:window-maximized="1" />
  <metadata
     id="metadata4049">
    <rdf:RDF>
      <cc:Work
         rdf:about="">
        <dc:format>image/svg+xml</dc:format>
        <dc:type
           rdf:resource="http://purl.org/dc/dcmitype/StillImage" />
        <dc:title></dc:title>
      </cc:Work>
    </rdf:RDF>
  </metadata>
  <g
     inkscape:label="Layer 1"
     inkscape:groupmode="layer"
     id="layer1"
     transform="translate(-163.66456,-260.3174)">
    <path
       style="fill:#202020;stroke-width:0.26458332"
       d="m 188.09797,273.62412 c -0.14359,-0.37708 -0.1132,-0.40747 0.14811,-0.14811 0.18082,0.17948 0.26212,0.39297 0.18065,0.47443 -0.0815,0.0815 -0.2294,-0.0654 -0.32876,-0.32632 z m -23.01696,-6.49271 c -0.71399,-3.3839 -1.35047,-6.30138 -1.4144,-6.48328 -0.0921,-0.26197 2.88779,-0.33073 14.33187,-0.33073 12.68585,0 14.4481,0.0486 14.4481,0.39808 0,0.4204 -2.62246,12.36674 -2.7407,12.48498 -0.0379,0.0379 -0.71671,-0.19113 -1.5084,-0.50903 -2.00129,-0.80361 -6.29763,-0.7994 -8.51704,0.008 l -1.52136,0.55369 -1.52135,-0.53843 c -0.83777,-0.29651 -2.54798,-0.60303 -3.80617,-0.68218 -2.12998,-0.13401 -4.1423,0.23476 -6.18483,1.13338 -0.15735,0.0692 -0.80226,-2.41647 -1.56572,-6.03484 z m 10.79514,0.51475 c 0.48796,-0.57339 0.48642,-0.58319 -0.10563,-0.67161 -0.33046,-0.0493 -0.87666,0.0579 -1.21378,0.23832 -0.49012,0.26231 -0.69429,0.26054 -1.01885,-0.009 -0.72641,-0.60287 -0.43387,-0.80123 1.18161,-0.80123 1.39593,0 1.5875,-0.0621 1.5875,-0.51442 0,-0.28292 -0.27881,-0.83855 -0.61958,-1.23472 -0.50899,-0.59173 -0.83898,-0.72031 -1.84867,-0.72031 -1.92424,0 -2.95738,1.38675 -2.30719,3.09687 0.55969,1.47211 3.28693,1.85874 4.34459,0.61592 z m -2.57026,-2.44696 c 0.18003,-0.46915 0.91841,-0.4152 1.083,0.0791 0.0689,0.20695 -0.14258,0.33073 -0.56508,0.33073 -0.50099,0 -0.63462,-0.10576 -0.51792,-0.40987 z m -2.02597,2.52653 c 0,-0.45077 -0.17639,-0.52916 -1.19063,-0.52916 h -1.19062 v -1.60427 -1.60426 l -0.8232,0.0829 -0.8232,0.0829 0.0155,1.91823 c 0.009,1.05502 0.0218,1.97776 0.0294,2.05052 0.008,0.0728 0.9069,0.13229 1.9983,0.13229 1.80799,0 1.98438,-0.047 1.98438,-0.52917 z m 8.20208,0.42991 c 0,-0.0546 0.41371,-1.00709 0.91936,-2.11667 l 0.91936,-2.0174 h -0.66965 c -0.54414,0 -0.77432,0.23557 -1.22801,1.25677 l -0.55836,1.25677 -0.51814,-1.25677 c -0.47359,-1.14872 -0.59491,-1.25677 -1.41114,-1.25677 -0.49115,0 -0.893,0.0576 -0.893,0.12791 0,0.0704 0.44282,1.02285 0.98406,2.11667 0.87213,1.76256 1.06774,1.98875 1.71979,1.98875 0.40465,0 0.73573,-0.0447 0.73573,-0.0993 z m 3.70417,-2.01741 v -2.11666 h -0.79375 -0.79375 v 2.11666 2.11667 h 0.79375 0.79375 z m 5.67889,1.59816 c 0.80147,-0.88561 0.35403,-1.80172 -1.05305,-2.15602 -1.55448,-0.39142 -1.55123,-0.85221 0.004,-0.61893 1.18777,0.17811 1.54201,-0.071 0.8599,-0.60468 -0.99398,-0.7777 -2.93034,-0.58902 -3.54245,0.34518 -0.56108,0.85632 -0.0882,1.61121 1.23185,1.96667 0.5796,0.15607 1.05383,0.39824 1.05383,0.53815 0,0.33663 -0.98147,0.32822 -1.19063,-0.0102 -0.18099,-0.29286 -1.4552,-0.36902 -1.4552,-0.087 0,1.14277 3.18312,1.63043 4.09139,0.6268 z m -4.09139,-3.87951 c 0,-0.45267 -0.14838,-0.62906 -0.52917,-0.62906 -0.35278,0 -0.52917,0.17639 -0.52917,0.52916 0,0.29105 0.11533,0.52917 0.25628,0.52917 0.14096,0 0.17819,0.20836 0.0828,0.46302 -0.15196,0.40547 -0.11805,0.41789 0.27288,0.0999 0.24553,-0.19972 0.44642,-0.64621 0.44642,-0.99219 z"
       id="path4065"
       inkscape:connector-curvature="0" />
  </g>
</svg>
