<?xml version="1.0" encoding="UTF-8" standalone="no"?>
<!-- Created with Inkscape (http://www.inkscape.org/) -->

<svg
   xmlns:dc="http://purl.org/dc/elements/1.1/"
   xmlns:cc="http://creativecommons.org/ns#"
   xmlns:rdf="http://www.w3.org/1999/02/22-rdf-syntax-ns#"
   xmlns:svg="http://www.w3.org/2000/svg"
   xmlns="http://www.w3.org/2000/svg"
   xmlns:sodipodi="http://sodipodi.sourceforge.net/DTD/sodipodi-0.dtd"
   xmlns:inkscape="http://www.inkscape.org/namespaces/inkscape"
   width="11.64167mm"
   height="12.96459mm"
   viewBox="0 0 11.64167 12.96459"
   version="1.1"
   id="svg8"
   inkscape:version="0.92.3 (2405546, 2018-03-11)"
   sodipodi:docname="logo.svg">
  <defs
     id="defs2" />
  <sodipodi:namedview
     id="base"
     pagecolor="#ffffff"
     bordercolor="#666666"
     borderopacity="1.0"
     inkscape:pageopacity="0.0"
     inkscape:pageshadow="2"
     inkscape:zoom="0.35"
     inkscape:cx="79.142877"
     inkscape:cy="-249.28571"
     inkscape:document-units="mm"
     inkscape:current-layer="layer1"
     showgrid="false"
     fit-margin-top="0"
     fit-margin-left="0"
     fit-margin-right="0"
     fit-margin-bottom="0"
     inkscape:window-width="1366"
     inkscape:window-height="705"
     inkscape:window-x="-8"
     inkscape:window-y="-8"
     inkscape:window-maximized="1" />
  <metadata
     id="metadata5">
    <rdf:RDF>
      <cc:Work
         rdf:about="">
        <dc:format>image/svg+xml</dc:format>
        <dc:type
           rdf:resource="http://purl.org/dc/dcmitype/StillImage" />
        <dc:title></dc:title>
      </cc:Work>
    </rdf:RDF>
  </metadata>
  <g
     inkscape:label="Layer 1"
     inkscape:groupmode="layer"
     id="layer1"
     transform="translate(-84.893447,-69.911899)">
    <path
       style="fill:#b8b8b8;stroke-width:0.26458332"
       d="m 89.126777,81.288989 c -1.36407,-1.57458 -1.38691,-1.5875 -2.8043,-1.5875 -0.78597,0 -1.42903,-0.0721 -1.42903,-0.16027 0,-0.1413 1.94543,-3.50599 4.68793,-8.10796 0.49865,-0.83675 1.00664,-1.52136 1.12886,-1.52136 0.19384,0 5.82488,9.34541 5.82488,9.6671 0,0.0674 -0.64667,0.12249 -1.43704,0.12249 -1.42658,0 -1.4471,0.0116 -2.81781,1.5875 -0.75942,0.87312 -1.47019,1.5875 -1.57949,1.5875 -0.1093,0 -0.8176,-0.71438 -1.574,-1.5875 z m 3.10669,-0.33073 1.36882,-1.38906 -1.18527,-3.80857 c -0.65189,-2.09471 -1.13486,-3.85897 -1.07325,-3.92057 0.0616,-0.0616 0.48735,1.11647 0.9461,2.61794 1.62609,5.32208 1.36861,4.83632 2.61216,4.92797 0.60716,0.0447 1.10392,0.009 1.10392,-0.0802 0,-0.0888 -0.67462,-1.31608 -1.49916,-2.72719 -0.82454,-1.41112 -1.83823,-3.17729 -2.25264,-3.92483 -0.82101,-1.48098 -1.53474,-1.86756 -2.20005,-1.19161 -0.41417,0.42079 -4.63148,7.55576 -4.63148,7.83567 0,0.30479 2.13891,0.12196 2.24226,-0.19167 0.0599,-0.1819 0.60913,-1.93807 1.22042,-3.9026 0.61129,-1.96453 1.15447,-3.45084 1.20708,-3.30291 0.0526,0.14793 -0.43158,1.92095 -1.07598,3.94006 l -1.17164,3.6711 1.34085,1.41775 c 0.73747,0.77976 1.41694,1.41775 1.50994,1.41775 0.093,0 0.78507,-0.62508 1.53792,-1.38906 z m -1.60738,0.94809 c -0.27885,-0.27885 -0.19709,-9.43634 0.0882,-9.87778 0.1704,-0.26366 0.25784,1.35706 0.26053,4.82865 0.002,2.87403 -0.0356,5.22552 -0.0841,5.22552 -0.0485,0 -0.16757,-0.0794 -0.26458,-0.17639 z"
       id="path21"
       inkscape:connector-curvature="0" />
  </g>
</svg>
