<?xml version="1.0" encoding="UTF-8" standalone="no"?>
<!-- Created with Inkscape (http://www.inkscape.org/) -->

<svg
   xmlns:dc="http://purl.org/dc/elements/1.1/"
   xmlns:cc="http://creativecommons.org/ns#"
   xmlns:rdf="http://www.w3.org/1999/02/22-rdf-syntax-ns#"
   xmlns:svg="http://www.w3.org/2000/svg"
   xmlns="http://www.w3.org/2000/svg"
   xmlns:sodipodi="http://sodipodi.sourceforge.net/DTD/sodipodi-0.dtd"
   xmlns:inkscape="http://www.inkscape.org/namespaces/inkscape"
   width="13.220847mm"
   height="12.12099mm"
   viewBox="0 0 13.220847 12.12099"
   version="1.1"
   id="svg3751"
   inkscape:version="0.92.3 (2405546, 2018-03-11)"
   sodipodi:docname="love.svg">
  <defs
     id="defs3745" />
  <sodipodi:namedview
     id="base"
     pagecolor="#ffffff"
     bordercolor="#666666"
     borderopacity="1.0"
     inkscape:pageopacity="0.0"
     inkscape:pageshadow="2"
     inkscape:zoom="0.35"
     inkscape:cx="70.77655"
     inkscape:cy="-74.142816"
     inkscape:document-units="mm"
     inkscape:current-layer="layer1"
     showgrid="false"
     fit-margin-top="0"
     fit-margin-left="0"
     fit-margin-right="0"
     fit-margin-bottom="0"
     inkscape:window-width="1366"
     inkscape:window-height="705"
     inkscape:window-x="-8"
     inkscape:window-y="-8"
     inkscape:window-maximized="1" />
  <metadata
     id="metadata3748">
    <rdf:RDF>
      <cc:Work
         rdf:about="">
        <dc:format>image/svg+xml</dc:format>
        <dc:type
           rdf:resource="http://purl.org/dc/dcmitype/StillImage" />
        <dc:title></dc:title>
      </cc:Work>
    </rdf:RDF>
  </metadata>
  <g
     inkscape:label="Layer 1"
     inkscape:groupmode="layer"
     id="layer1"
     transform="translate(-87.107038,-117.09539)">
    <path
       style="fill:#959595;stroke-width:0.26458335"
       d="m 90.679242,125.97524 c -3.617212,-4.16831 -4.099852,-5.25792 -3.14601,-7.10245 1.050485,-2.03141 3.812256,-2.38868 5.590362,-0.72318 l 0.57613,0.53964 0.93532,-0.71341 c 1.82833,-1.39453 4.09576,-1.07346 5.19918,0.7362 0.580766,0.95249 0.660576,2.41466 0.178346,3.26738 -0.520436,0.92029 -5.990936,7.23696 -6.267506,7.23696 -0.13925,0 -1.51887,-1.45851 -3.065822,-3.24114 z m 5.874572,-0.87202 c 2.83221,-3.31716 3.30896,-4.30411 2.7412,-5.6748 -0.75741,-1.82856 -2.64956,-2.04852 -4.54169,-0.52796 l -1.01523,0.81586 -0.99593,-0.80035 c -0.54776,-0.4402 -1.364709,-0.87411 -1.815439,-0.96426 -1.936892,-0.38737 -3.498706,1.6452 -2.703204,3.51801 0.365299,0.86001 5.183363,6.68833 5.528993,6.68833 0.10618,0 1.36676,-1.37467 2.8013,-3.05483 z"
       id="path3763"
       inkscape:connector-curvature="0" />
  </g>
</svg>
