<?xml version="1.0" encoding="UTF-8" standalone="no"?>
<!-- Created with Inkscape (http://www.inkscape.org/) -->

<svg
   xmlns:dc="http://purl.org/dc/elements/1.1/"
   xmlns:cc="http://creativecommons.org/ns#"
   xmlns:rdf="http://www.w3.org/1999/02/22-rdf-syntax-ns#"
   xmlns:svg="http://www.w3.org/2000/svg"
   xmlns="http://www.w3.org/2000/svg"
   xmlns:sodipodi="http://sodipodi.sourceforge.net/DTD/sodipodi-0.dtd"
   xmlns:inkscape="http://www.inkscape.org/namespaces/inkscape"
   width="36.512501mm"
   height="5.8334069mm"
   viewBox="0 0 36.512501 5.8334069"
   version="1.1"
   id="svg4073"
   inkscape:version="0.92.3 (2405546, 2018-03-11)"
   sodipodi:docname="mango.svg">
  <defs
     id="defs4067" />
  <sodipodi:namedview
     id="base"
     pagecolor="#ffffff"
     bordercolor="#666666"
     borderopacity="1.0"
     inkscape:pageopacity="0.0"
     inkscape:pageshadow="2"
     inkscape:zoom="0.35"
     inkscape:cx="154.15823"
     inkscape:cy="518.63505"
     inkscape:document-units="mm"
     inkscape:current-layer="layer1"
     showgrid="false"
     fit-margin-top="0"
     fit-margin-left="0"
     fit-margin-right="0"
     fit-margin-bottom="0"
     inkscape:window-width="1366"
     inkscape:window-height="705"
     inkscape:window-x="-8"
     inkscape:window-y="-8"
     inkscape:window-maximized="1" />
  <metadata
     id="metadata4070">
    <rdf:RDF>
      <cc:Work
         rdf:about="">
        <dc:format>image/svg+xml</dc:format>
        <dc:type
           rdf:resource="http://purl.org/dc/dcmitype/StillImage" />
        <dc:title></dc:title>
      </cc:Work>
    </rdf:RDF>
  </metadata>
  <g
     inkscape:label="Layer 1"
     inkscape:groupmode="layer"
     id="layer1"
     transform="translate(-166.12004,-261.48282)">
    <path
       style="fill:#121212;stroke-width:0.26458332"
       d="m 166.30194,267.09344 c -0.10004,-0.10005 -0.1819,-1.35269 -0.1819,-2.78364 0,-2.43401 0.0345,-2.60174 0.53451,-2.60174 0.37468,0 0.93061,0.60678 1.85919,2.02921 0.72857,1.11606 1.28427,2.15042 1.23489,2.29857 -0.22729,0.68186 -0.74213,0.34469 -1.55471,-1.01817 l -0.88325,-1.48141 -0.1323,1.77714 c -0.12177,1.63579 -0.41834,2.23813 -0.87643,1.78004 z m 5.20877,-0.21735 c -0.0819,-0.21353 -0.10797,-1.04713 -0.0579,-1.85245 0.0992,-1.59401 -0.0541,-1.82943 -0.52218,-0.80204 -0.33139,0.72734 -0.71106,0.85486 -0.92046,0.30918 -0.21812,-0.5684 1.32415,-2.82272 1.93114,-2.82272 0.49495,0 0.52868,0.17724 0.52868,2.77813 0,2.31836 -0.067,2.77812 -0.40518,2.77812 -0.22285,0 -0.47222,-0.1747 -0.55415,-0.38822 z m 2.01766,0.22259 c 0,-0.30727 2.24736,-4.33176 2.41909,-4.33202 0.34453,-5.3e-4 0.48128,0.84705 0.21649,1.34182 -0.2456,0.45891 -0.17924,0.51 0.66241,0.51 0.51444,0 0.93535,-0.0635 0.93535,-0.14109 0,-0.0776 -0.29967,-0.73244 -0.66592,-1.45521 -0.63975,-1.26249 -0.64531,-1.31412 -0.14155,-1.31412 0.38988,0 0.86273,0.62768 1.84372,2.4474 1.54881,2.87305 1.57411,2.95067 0.99772,3.06167 -0.2776,0.0535 -0.64928,-0.2663 -0.99951,-0.85989 -0.52789,-0.89471 -0.63224,-0.94501 -1.9605,-0.94501 -1.3229,0 -1.43412,0.0528 -1.94932,0.92604 -0.46456,0.78736 -1.35798,1.28764 -1.35798,0.76041 z m 7.67292,-2.59309 c 0,-2.50047 0.0497,-2.79753 0.46854,-2.79753 0.60295,0 5.08771,4.49424 5.08771,5.09847 0,0.25178 -0.0923,0.45778 -0.20506,0.45778 -0.11278,0 -1.09207,-0.89297 -2.17619,-1.98437 -1.08412,-1.09141 -2.03364,-1.98458 -2.11004,-1.98483 -0.0764,-2.6e-4 -0.13892,0.86084 -0.13892,1.91355 0,1.61211 -0.073,1.92824 -0.46302,2.00423 -0.41747,0.0813 -0.46302,-0.18501 -0.46302,-2.7073 z m 8.59896,2.34879 c -0.79124,-0.40539 -1.45521,-1.08647 -1.45521,-1.49272 0,-0.42003 0.90236,-0.20423 1.50215,0.35925 0.9757,0.91663 3.78952,0.67523 3.78952,-0.32511 0,-0.11891 -0.4455,-0.25316 -0.98999,-0.29833 -0.69187,-0.0574 -1.01641,-0.22154 -1.07773,-0.54514 -0.0758,-0.39977 0.13173,-0.46302 1.51915,-0.46302 h 1.6069 v 0.81115 c 0,0.44613 -0.11655,1.02892 -0.259,1.29508 -0.54602,1.02026 -3.19544,1.3968 -4.63579,0.65884 z m 7.67292,-0.002 c -1.1282,-0.58059 -1.70711,-1.42703 -1.71391,-2.50595 -0.007,-1.16172 0.50373,-1.91427 1.67859,-2.47178 2.33175,-1.10649 5.19469,0.25978 5.19469,2.47905 0,0.94988 -0.73081,2.0265 -1.68198,2.47786 -1.15736,0.54921 -1.22844,0.54362 -1.22844,-0.0966 0,-0.29105 0.15784,-0.52917 0.35076,-0.52917 0.19291,0 0.60963,-0.27556 0.92604,-0.61237 1.28885,-1.37191 0.26572,-3.0918 -1.83927,-3.0918 -1.44881,0 -2.34794,0.70925 -2.34794,1.85209 0,0.79315 0.86054,1.85208 1.5051,1.85208 0.19084,0 0.34698,0.23812 0.34698,0.52917 0,0.63497 -0.15519,0.65028 -1.19062,0.11743 z m -11.19188,-2.02243 c -0.46869,-0.46869 -0.42041,-3.12209 0.0568,-3.12209 0.2752,0 0.39779,0.45547 0.46302,1.72035 0.0913,1.7702 0.0256,1.94721 -0.51982,1.40174 z m 1.79917,-0.98512 c 0,-0.13436 0.30635,-0.60836 0.68077,-1.05334 1.16253,-1.38158 3.62287,-1.6932 5.11527,-0.64788 0.54035,0.37848 0.5647,0.46325 0.19283,0.67136 -0.26154,0.14636 -0.62425,0.13187 -0.94089,-0.0376 -0.2834,-0.15167 -1.01112,-0.27577 -1.61714,-0.27577 -0.88314,0 -1.24906,0.15757 -1.84334,0.79375 -0.70998,0.76004 -1.5875,1.06376 -1.5875,0.54947 z"
       id="path4086"
       inkscape:connector-curvature="0" />
  </g>
</svg>
