<?xml version="1.0" encoding="UTF-8" standalone="no"?>
<!-- Created with Inkscape (http://www.inkscape.org/) -->

<svg
   xmlns:dc="http://purl.org/dc/elements/1.1/"
   xmlns:cc="http://creativecommons.org/ns#"
   xmlns:rdf="http://www.w3.org/1999/02/22-rdf-syntax-ns#"
   xmlns:svg="http://www.w3.org/2000/svg"
   xmlns="http://www.w3.org/2000/svg"
   xmlns:sodipodi="http://sodipodi.sourceforge.net/DTD/sodipodi-0.dtd"
   xmlns:inkscape="http://www.inkscape.org/namespaces/inkscape"
   width="13.203557mm"
   height="13.192535mm"
   viewBox="0 0 13.203557 13.192535"
   version="1.1"
   id="svg3771"
   inkscape:version="0.92.3 (2405546, 2018-03-11)"
   sodipodi:docname="optimization.svg">
  <defs
     id="defs3765" />
  <sodipodi:namedview
     id="base"
     pagecolor="#ffffff"
     bordercolor="#666666"
     borderopacity="1.0"
     inkscape:pageopacity="0.0"
     inkscape:pageshadow="2"
     inkscape:zoom="0.35"
     inkscape:cx="-15.034896"
     inkscape:cy="161.99969"
     inkscape:document-units="mm"
     inkscape:current-layer="layer1"
     showgrid="false"
     fit-margin-top="0"
     fit-margin-left="0"
     fit-margin-right="0"
     fit-margin-bottom="0"
     inkscape:window-width="1366"
     inkscape:window-height="705"
     inkscape:window-x="-8"
     inkscape:window-y="-8"
     inkscape:window-maximized="1" />
  <metadata
     id="metadata3768">
    <rdf:RDF>
      <cc:Work
         rdf:about="">
        <dc:format>image/svg+xml</dc:format>
        <dc:type
           rdf:resource="http://purl.org/dc/dcmitype/StillImage" />
        <dc:title></dc:title>
      </cc:Work>
    </rdf:RDF>
  </metadata>
  <g
     inkscape:label="Layer 1"
     inkscape:groupmode="layer"
     id="layer1"
     transform="translate(-109.81132,-148.26512)">
    <path
       style="fill:#969696;stroke-width:0.26458335"
       d="m 113.63854,161.1013 c -0.59815,-0.20968 -1.52505,-0.88148 -2.13168,-1.545 -2.19098,-2.39644 -2.26528,-5.58436 -0.18387,-7.88823 0.96065,-1.06333 2.6036,-2.07878 3.36334,-2.07878 0.26395,0 0.40742,-0.24597 0.40742,-0.69848 0,-0.68739 0.0228,-0.69612 1.43715,-0.55014 1.84819,0.19075 3.18801,0.83605 4.54079,2.18701 1.7551,1.75273 2.42755,4.57311 1.57618,6.61073 -0.25029,0.59903 -0.56119,0.91754 -0.89561,0.91754 -0.28173,0 -0.71941,0.32743 -0.97262,0.72761 -1.44426,2.28256 -4.45446,3.25957 -7.1411,2.31774 z m 3.6982,-0.69463 c 0.98216,-0.27267 3.04867,-1.98618 3.04867,-2.52791 0,-0.13169 -1.19062,-0.6297 -2.64583,-1.10669 l -2.64583,-0.86724 v -2.77873 c 0,-2.75867 -0.004,-2.77742 -0.59532,-2.59843 -3.86047,1.16913 -5.08725,5.81446 -2.27755,8.62416 1.43034,1.43035 3.05143,1.82798 5.11586,1.25484 z m 4.88882,-5.07782 c 0.0682,-2.73185 -2.63929,-5.84484 -5.27664,-6.06697 l -0.82475,-0.0695 -0.0122,3.04271 -0.0122,3.04271 2.73816,0.96247 2.73816,0.96246 0.31879,-0.69788 c 0.17534,-0.38384 0.32417,-0.91305 0.33073,-1.17603 z"
       id="path3783"
       inkscape:connector-curvature="0" />
  </g>
</svg>
