<?xml version="1.0" encoding="UTF-8" standalone="no"?>
<!-- Created with Inkscape (http://www.inkscape.org/) -->

<svg
   xmlns:dc="http://purl.org/dc/elements/1.1/"
   xmlns:cc="http://creativecommons.org/ns#"
   xmlns:rdf="http://www.w3.org/1999/02/22-rdf-syntax-ns#"
   xmlns:svg="http://www.w3.org/2000/svg"
   xmlns="http://www.w3.org/2000/svg"
   xmlns:sodipodi="http://sodipodi.sourceforge.net/DTD/sodipodi-0.dtd"
   xmlns:inkscape="http://www.inkscape.org/namespaces/inkscape"
   width="12.887714mm"
   height="11.057892mm"
   viewBox="0 0 12.887714 11.057892"
   version="1.1"
   id="svg3791"
   inkscape:version="0.92.3 (2405546, 2018-03-11)"
   sodipodi:docname="paint.svg">
  <defs
     id="defs3785" />
  <sodipodi:namedview
     id="base"
     pagecolor="#ffffff"
     bordercolor="#666666"
     borderopacity="1.0"
     inkscape:pageopacity="0.0"
     inkscape:pageshadow="2"
     inkscape:zoom="0.35"
     inkscape:cx="63.909261"
     inkscape:cy="-53.308306"
     inkscape:document-units="mm"
     inkscape:current-layer="layer1"
     showgrid="false"
     fit-margin-top="0"
     fit-margin-left="0"
     fit-margin-right="0"
     fit-margin-bottom="0"
     inkscape:window-width="1366"
     inkscape:window-height="705"
     inkscape:window-x="-8"
     inkscape:window-y="-8"
     inkscape:window-maximized="1" />
  <metadata
     id="metadata3788">
    <rdf:RDF>
      <cc:Work
         rdf:about="">
        <dc:format>image/svg+xml</dc:format>
        <dc:type
           rdf:resource="http://purl.org/dc/dcmitype/StillImage" />
        <dc:title></dc:title>
      </cc:Work>
    </rdf:RDF>
  </metadata>
  <g
     inkscape:label="Layer 1"
     inkscape:groupmode="layer"
     id="layer1"
     transform="translate(-88.924008,-123.67095)">
    <path
       style="fill:#959595;stroke-width:0.26458335"
       d="m 89.759895,134.29887 c -0.93515,-0.46099 -1.07433,-0.74807 -0.47432,-0.97831 0.21207,-0.0814 0.68585,-0.62362 1.05285,-1.20498 0.46738,-0.74039 0.94564,-1.13389 1.59659,-1.31362 0.64063,-0.17689 2.04226,-1.31137 4.51193,-3.65198 1.97044,-1.86745 3.787995,-3.42963 4.039025,-3.4715 0.25103,-0.0419 0.69097,0.0954 0.97764,0.305 0.85203,0.62301 0.29698,1.42138 -3.435485,4.94157 -2.19156,2.06691 -3.4879,3.48983 -3.57275,3.9216 -0.17876,0.90965 -1.67979,1.88975 -2.88252,1.88215 -0.52419,-0.003 -1.34002,-0.19678 -1.81296,-0.42993 z m 3.08993,-0.74489 c 0.97161,-0.50244 1.15913,-1.04135 0.60097,-1.72718 -0.39472,-0.48501 -0.5533,-0.51639 -1.29597,-0.2564 -0.68998,0.24154 -1.93191,1.69021 -1.93191,2.2535 0,0.28182 1.94678,0.0818 2.62691,-0.26992 z m 1.81809,-2.57624 c 0.42217,-0.42217 0.40196,-0.74084 -0.047,-0.74084 -0.44874,0 -1.01821,0.64578 -0.77975,0.88424 0.25274,0.25274 0.46791,0.21542 0.82673,-0.1434 z m 3.8185,-3.58014 c 1.42143,-1.4161 2.584425,-2.66626 2.584425,-2.77813 0,-0.58015 -0.91144,0.06 -3.272205,2.29838 -2.24942,2.13277 -2.87548,3.05447 -2.07473,3.05447 0.0979,0 1.34107,-1.15863 2.76251,-2.57472 z"
       id="path3803"
       inkscape:connector-curvature="0" />
  </g>
</svg>
