<?xml version="1.0" encoding="UTF-8" standalone="no"?>
<!-- Created with Inkscape (http://www.inkscape.org/) -->

<svg
   xmlns:dc="http://purl.org/dc/elements/1.1/"
   xmlns:cc="http://creativecommons.org/ns#"
   xmlns:rdf="http://www.w3.org/1999/02/22-rdf-syntax-ns#"
   xmlns:svg="http://www.w3.org/2000/svg"
   xmlns="http://www.w3.org/2000/svg"
   xmlns:sodipodi="http://sodipodi.sourceforge.net/DTD/sodipodi-0.dtd"
   xmlns:inkscape="http://www.inkscape.org/namespaces/inkscape"
   width="6.2734337mm"
   height="6.5038047mm"
   viewBox="0 0 6.2734337 6.5038047"
   version="1.1"
   id="svg4199"
   inkscape:version="0.92.3 (2405546, 2018-03-11)"
   sodipodi:docname="paper.svg">
  <defs
     id="defs4193" />
  <sodipodi:namedview
     id="base"
     pagecolor="#ffffff"
     bordercolor="#666666"
     borderopacity="1.0"
     inkscape:pageopacity="0.0"
     inkscape:pageshadow="2"
     inkscape:zoom="2.8"
     inkscape:cx="164.05638"
     inkscape:cy="10.140621"
     inkscape:document-units="mm"
     inkscape:current-layer="layer1"
     showgrid="false"
     fit-margin-top="0"
     fit-margin-left="0"
     fit-margin-right="0"
     fit-margin-bottom="0"
     inkscape:window-width="1366"
     inkscape:window-height="705"
     inkscape:window-x="-8"
     inkscape:window-y="-8"
     inkscape:window-maximized="1" />
  <metadata
     id="metadata4196">
    <rdf:RDF>
      <cc:Work
         rdf:about="">
        <dc:format>image/svg+xml</dc:format>
        <dc:type
           rdf:resource="http://purl.org/dc/dcmitype/StillImage" />
        <dc:title></dc:title>
      </cc:Work>
    </rdf:RDF>
  </metadata>
  <g
     inkscape:label="Layer 1"
     inkscape:groupmode="layer"
     id="layer1"
     transform="translate(-177.61893,-176.26861)">
    <path
       style="fill:#1c1c1c;stroke-width:0.26458335"
       d="m 180.01477,181.63307 c -0.34858,-0.63812 -1.01249,-1.34943 -1.50911,-1.61688 -0.4877,-0.26265 -0.88673,-0.55048 -0.88673,-0.63963 0,-0.22205 6.1166,-3.25118 6.2651,-3.10267 0.11876,0.11875 -1.04766,2.52247 -2.48535,5.12175 l -0.76151,1.37677 z m 1.81714,-1.93613 c 0.58842,-1.12294 0.96936,-2.1422 0.84654,-2.26503 -0.21979,-0.21978 -4.26577,1.62124 -4.26577,1.94104 0,0.0902 0.28266,0.29288 0.62813,0.45029 0.55704,0.2538 0.74419,0.16641 1.65365,-0.77223 0.56403,-0.58213 1.26364,-1.18196 1.55468,-1.33295 0.29104,-0.151 -0.1171,0.38965 -0.90698,1.20143 -1.32857,1.36538 -1.41323,1.52627 -1.13016,2.14756 0.1683,0.36938 0.36092,0.6716 0.42803,0.6716 0.0671,0 0.60345,-0.91877 1.19188,-2.04171 z"
       id="path4212"
       inkscape:connector-curvature="0" />
  </g>
</svg>
