<?xml version="1.0" encoding="UTF-8" standalone="no"?>
<!-- Created with Inkscape (http://www.inkscape.org/) -->

<svg
   xmlns:dc="http://purl.org/dc/elements/1.1/"
   xmlns:cc="http://creativecommons.org/ns#"
   xmlns:rdf="http://www.w3.org/1999/02/22-rdf-syntax-ns#"
   xmlns:svg="http://www.w3.org/2000/svg"
   xmlns="http://www.w3.org/2000/svg"
   xmlns:sodipodi="http://sodipodi.sourceforge.net/DTD/sodipodi-0.dtd"
   xmlns:inkscape="http://www.inkscape.org/namespaces/inkscape"
   width="7.4105606mm"
   height="13.233152mm"
   viewBox="0 0 7.4105606 13.233152"
   version="1.1"
   id="svg3811"
   inkscape:version="0.92.3 (2405546, 2018-03-11)"
   sodipodi:docname="phone.svg">
  <defs
     id="defs3805" />
  <sodipodi:namedview
     id="base"
     pagecolor="#ffffff"
     bordercolor="#666666"
     borderopacity="1.0"
     inkscape:pageopacity="0.0"
     inkscape:pageshadow="2"
     inkscape:zoom="0.35"
     inkscape:cx="125.43275"
     inkscape:cy="-40.706729"
     inkscape:document-units="mm"
     inkscape:current-layer="layer1"
     showgrid="false"
     fit-margin-top="0"
     fit-margin-left="0"
     fit-margin-right="0"
     fit-margin-bottom="0"
     inkscape:window-width="1366"
     inkscape:window-height="705"
     inkscape:window-x="-8"
     inkscape:window-y="-8"
     inkscape:window-maximized="1" />
  <metadata
     id="metadata3808">
    <rdf:RDF>
      <cc:Work
         rdf:about="">
        <dc:format>image/svg+xml</dc:format>
        <dc:type
           rdf:resource="http://purl.org/dc/dcmitype/StillImage" />
        <dc:title></dc:title>
      </cc:Work>
    </rdf:RDF>
  </metadata>
  <g
     inkscape:label="Layer 1"
     inkscape:groupmode="layer"
     id="layer1"
     transform="translate(-72.645918,-124.82986)">
    <path
       style="fill:#939393;stroke-width:0.26458335"
       d="m 73.176203,137.53185 c -0.49557,-0.49557 -0.52917,-0.88194 -0.52917,-6.08542 0,-6.91901 -0.17048,-6.61458 3.70417,-6.61458 3.87464,0 3.70416,-0.30443 3.70416,6.61458 0,6.91901 0.17048,6.61459 -3.70416,6.61459 -2.29306,0 -2.71639,-0.0706 -3.175,-0.52917 z m 5.76791,-0.58208 c 0.17463,-0.17463 0.3175,-0.95256 0.3175,-1.72875 v -1.41124 l -2.84427,0.0751 -2.84427,0.0751 -0.0815,1.27732 c -0.0456,0.71476 0.0561,1.44307 0.23083,1.65365 0.40296,0.48554 4.74605,0.53446 5.22169,0.0588 z m -3.11928,-0.86976 c -0.47144,-0.56804 -0.1224,-1.24783 0.58863,-1.1464 0.6781,0.0967 0.96234,0.96632 0.42679,1.30571 -0.49602,0.31434 -0.64124,0.29156 -1.01542,-0.15931 z m 3.43678,-5.69191 v -2.64583 h -2.91041 -2.91042 v 2.64583 2.64583 h 2.91042 2.91041 z m 0,-3.78354 c 0,-0.7568 -0.66048,-0.97896 -2.91041,-0.97896 -2.24994,0 -2.91042,0.22216 -2.91042,0.97896 0,0.26137 0.69877,0.34396 2.91042,0.34396 2.21164,0 2.91041,-0.0826 2.91041,-0.34396 z"
       id="path3823"
       inkscape:connector-curvature="0" />
  </g>
</svg>
