<?xml version="1.0" encoding="UTF-8" standalone="no"?>
<!-- Created with Inkscape (http://www.inkscape.org/) -->

<svg
   xmlns:dc="http://purl.org/dc/elements/1.1/"
   xmlns:cc="http://creativecommons.org/ns#"
   xmlns:rdf="http://www.w3.org/1999/02/22-rdf-syntax-ns#"
   xmlns:svg="http://www.w3.org/2000/svg"
   xmlns="http://www.w3.org/2000/svg"
   xmlns:sodipodi="http://sodipodi.sourceforge.net/DTD/sodipodi-0.dtd"
   xmlns:inkscape="http://www.inkscape.org/namespaces/inkscape"
   width="3.5999644mm"
   height="5.0058856mm"
   viewBox="0 0 3.5999644 5.0058856"
   version="1.1"
   id="svg4157"
   inkscape:version="0.92.3 (2405546, 2018-03-11)"
   sodipodi:docname="point.svg">
  <defs
     id="defs4151" />
  <sodipodi:namedview
     id="base"
     pagecolor="#ffffff"
     bordercolor="#666666"
     borderopacity="1.0"
     inkscape:pageopacity="0.0"
     inkscape:pageshadow="2"
     inkscape:zoom="11.2"
     inkscape:cx="14.830402"
     inkscape:cy="9.7969056"
     inkscape:document-units="mm"
     inkscape:current-layer="layer1"
     showgrid="false"
     fit-margin-top="0"
     fit-margin-left="0"
     fit-margin-right="0"
     fit-margin-bottom="0"
     inkscape:window-width="1366"
     inkscape:window-height="705"
     inkscape:window-x="-8"
     inkscape:window-y="-8"
     inkscape:window-maximized="1" />
  <metadata
     id="metadata4154">
    <rdf:RDF>
      <cc:Work
         rdf:about="">
        <dc:format>image/svg+xml</dc:format>
        <dc:type
           rdf:resource="http://purl.org/dc/dcmitype/StillImage" />
        <dc:title></dc:title>
      </cc:Work>
    </rdf:RDF>
  </metadata>
  <g
     inkscape:label="Layer 1"
     inkscape:groupmode="layer"
     id="layer1"
     transform="translate(-152.23897,-92.975931)">
    <path
       style="fill:#efefef;stroke-width:0.26458335"
       d="m 153.13006,96.917289 c -1.04026,-1.571938 -1.15851,-2.519437 -0.41343,-3.312548 0.78765,-0.838413 1.83667,-0.838413 2.62432,0 0.46841,0.498593 0.57343,0.836132 0.45085,1.449014 -0.16707,0.835364 -1.4271,2.928062 -1.76301,2.928062 -0.10684,0 -0.51127,-0.479037 -0.89873,-1.064528 z m 1.65028,-0.324534 c 0.86972,-1.410754 0.96082,-2.190241 0.32971,-2.821343 -0.30365,-0.303652 -0.79021,-0.552095 -1.08126,-0.552095 -0.8678,0 -1.66271,0.98654 -1.45751,1.808866 0.21519,0.862354 1.15429,2.424468 1.45751,2.424468 0.12179,0 0.45998,-0.386953 0.75155,-0.859896 z m -1.45749,-1.409579 c -0.0881,-0.229565 0.0347,-0.612266 0.27289,-0.850446 0.40102,-0.401018 0.46509,-0.401018 0.86611,0 0.23818,0.23818 0.36098,0.620881 0.27289,0.850446 -0.20746,0.540621 -1.20443,0.540621 -1.41189,0 z m 1.17448,-0.326749 c 0.0585,-0.175507 -0.13858,-0.314193 -0.44649,-0.314193 -0.54962,0 -0.71436,0.27783 -0.36931,0.622873 0.24513,0.245129 0.68691,0.07797 0.8158,-0.30868 z"
       id="path4170"
       inkscape:connector-curvature="0" />
  </g>
</svg>
