<?xml version="1.0" encoding="UTF-8" standalone="no"?>
<!-- Created with Inkscape (http://www.inkscape.org/) -->

<svg
   xmlns:dc="http://purl.org/dc/elements/1.1/"
   xmlns:cc="http://creativecommons.org/ns#"
   xmlns:rdf="http://www.w3.org/1999/02/22-rdf-syntax-ns#"
   xmlns:svg="http://www.w3.org/2000/svg"
   xmlns="http://www.w3.org/2000/svg"
   xmlns:sodipodi="http://sodipodi.sourceforge.net/DTD/sodipodi-0.dtd"
   xmlns:inkscape="http://www.inkscape.org/namespaces/inkscape"
   width="30.16254mm"
   height="14.802808mm"
   viewBox="0 0 30.16254 14.802808"
   version="1.1"
   id="svg4115"
   inkscape:version="0.92.3 (2405546, 2018-03-11)"
   sodipodi:docname="puma.svg">
  <defs
     id="defs4109" />
  <sodipodi:namedview
     id="base"
     pagecolor="#ffffff"
     bordercolor="#666666"
     borderopacity="1.0"
     inkscape:pageopacity="0.0"
     inkscape:pageshadow="2"
     inkscape:zoom="2.8"
     inkscape:cx="185.87369"
     inkscape:cy="75.889459"
     inkscape:document-units="mm"
     inkscape:current-layer="layer1"
     showgrid="false"
     fit-margin-top="0"
     fit-margin-left="0"
     fit-margin-right="0"
     fit-margin-bottom="0"
     inkscape:window-width="1366"
     inkscape:window-height="705"
     inkscape:window-x="-8"
     inkscape:window-y="-8"
     inkscape:window-maximized="1" />
  <metadata
     id="metadata4112">
    <rdf:RDF>
      <cc:Work
         rdf:about="">
        <dc:format>image/svg+xml</dc:format>
        <dc:type
           rdf:resource="http://purl.org/dc/dcmitype/StillImage" />
        <dc:title></dc:title>
      </cc:Work>
    </rdf:RDF>
  </metadata>
  <g
     inkscape:label="Layer 1"
     inkscape:groupmode="layer"
     id="layer1"
     transform="translate(-155.10248,-254.67565)">
    <path
       style="fill:#0c0c0c;stroke-width:0.26458335"
       d="m 155.10252,265.87365 v -3.57187 l 2.05052,0.004 c 1.12779,0.002 2.20408,0.10147 2.39176,0.22055 0.24857,0.1577 0.32042,0.8931 0.26459,2.70792 l -0.0767,2.49144 -1.25677,0.0806 c -1.19658,0.0768 -1.25677,0.11797 -1.25677,0.85989 0,0.73274 -0.0632,0.77926 -1.05834,0.77926 h -1.05833 z m 2.64583,-0.79375 c 0,-0.97014 -0.11533,-1.71979 -0.26458,-1.71979 -0.14925,0 -0.26458,0.74965 -0.26458,1.71979 0,0.97014 0.11533,1.71979 0.26458,1.71979 0.14925,0 0.26458,-0.74965 0.26458,-1.71979 z m 2.76099,4.01949 c -0.073,-0.19037 -0.0991,-1.76795 -0.0578,-3.50572 l 0.075,-3.1596 0.99219,-0.0821 0.99218,-0.0821 v 3.19098 c 0,2.66003 0.066,3.19097 0.39688,3.19097 0.33073,0 0.39687,-0.52917 0.39687,-3.175 v -3.175 h 0.92604 0.92605 v 3.57187 3.57188 h -2.25727 c -1.6153,0 -2.29503,-0.0984 -2.39008,-0.34614 z m 5.49945,-3.14316 0.0739,-3.52216 3.27009,-0.0745 c 2.185,-0.0498 3.39217,0.0268 3.63802,0.23083 0.27792,0.23066 0.36793,1.10651 0.36793,3.58025 v 3.2749 h -1.05833 -1.05834 v -3.06476 c 0,-2.15127 -0.0887,-3.03521 -0.29744,-2.96561 -0.20045,0.0668 -0.28204,1.06611 -0.25023,3.06476 l 0.0472,2.96561 h -1.07268 -1.07268 v -3.06476 c 0,-2.33447 -0.0788,-3.03837 -0.33073,-2.95404 -0.23431,0.0784 -0.34207,0.95262 -0.36963,2.99861 l -0.0389,2.8879 -0.96108,0.0826 -0.96108,0.0826 z m 7.87915,0.2144 c 0,-2.49258 0.089,-3.34872 0.3724,-3.58396 0.23089,-0.19162 1.1106,-0.27934 2.3151,-0.23083 l 1.9427,0.0782 0.0738,3.50573 0.0738,3.50573 h -0.93373 c -0.86107,0 -0.93372,-0.0618 -0.93372,-0.79375 0,-0.52917 -0.13229,-0.79375 -0.39687,-0.79375 -0.26459,0 -0.39688,0.26458 -0.39688,0.79375 0,0.74965 -0.0588,0.79375 -1.05833,0.79375 h -1.05833 z m 2.85689,-1.00358 c -0.0488,-1.01091 -0.20472,-1.67423 -0.4095,-1.74184 -0.24215,-0.08 -0.33073,0.35732 -0.33073,1.63264 0,1.39578 0.0814,1.74184 0.4095,1.74184 0.33388,0 0.39496,-0.30149 0.33073,-1.63264 z m 3.22852,3.46911 c 0,-0.34442 -0.11234,-0.47535 -0.30546,-0.35599 -0.19366,0.11968 -0.23346,0.0723 -0.10874,-0.12953 0.15064,-0.24374 0.28419,-0.24572 0.57005,-0.008 0.42938,0.35636 0.50082,1.03878 0.10874,1.03878 -0.14552,0 -0.26459,-0.24515 -0.26459,-0.54478 z m 2.43417,-2.41855 c -0.17463,-0.17462 -0.3175,-0.57059 -0.3175,-0.87992 0,-0.30933 -0.30944,-0.85107 -0.68765,-1.20386 -0.3782,-0.35278 -0.96423,-1.18469 -1.30228,-1.84867 -0.79618,-1.56385 -1.03899,-1.73878 -2.72904,-1.96607 -1.0101,-0.13585 -1.66502,-0.4123 -2.30229,-0.97183 -0.72667,-0.63802 -0.98603,-0.73092 -1.4089,-0.5046 -0.37681,0.20166 -0.80531,0.1761 -1.56987,-0.0937 -0.77339,-0.27287 -1.12964,-0.29297 -1.34661,-0.076 -0.21698,0.21698 -0.38252,0.20632 -0.62576,-0.0403 -0.26508,-0.26875 -0.22878,-0.41055 0.18287,-0.71437 0.28247,-0.20848 0.78849,-0.37906 1.12447,-0.37906 0.33599,0 0.61089,-0.11907 0.61089,-0.26459 0,-0.14552 -0.27384,-0.26458 -0.60854,-0.26458 -0.97585,0 -1.28158,-0.48972 -0.78186,-1.25239 0.23493,-0.35855 0.66368,-0.73942 0.95278,-0.84636 0.71123,-0.2631 3.36594,1.0383 5.06783,2.48437 3.17401,2.69691 4.54273,2.67294 5.94459,-0.10412 1.05618,-2.09229 2.65437,-3.37154 2.65437,-2.12466 0,0.33152 -0.34547,0.74192 -0.89992,1.06906 -0.5696,0.33607 -1.16548,1.05583 -1.62342,1.96092 -0.39792,0.78648 -0.89933,1.49744 -1.11425,1.57991 -0.30047,0.1153 -0.32062,0.23445 -0.0872,0.51568 0.16694,0.20115 0.3749,1.00341 0.46212,1.78281 0.0872,0.77939 0.29821,1.59567 0.46886,1.81395 0.49502,0.63319 0.85001,1.68048 0.73988,2.18281 -0.1189,0.54237 -0.36257,0.58649 -0.80354,0.14552 z"
       id="path4128"
       inkscape:connector-curvature="0" />
  </g>
</svg>
