<?xml version="1.0" encoding="UTF-8" standalone="no"?>
<!-- Created with Inkscape (http://www.inkscape.org/) -->

<svg
   xmlns:dc="http://purl.org/dc/elements/1.1/"
   xmlns:cc="http://creativecommons.org/ns#"
   xmlns:rdf="http://www.w3.org/1999/02/22-rdf-syntax-ns#"
   xmlns:svg="http://www.w3.org/2000/svg"
   xmlns="http://www.w3.org/2000/svg"
   xmlns:sodipodi="http://sodipodi.sourceforge.net/DTD/sodipodi-0.dtd"
   xmlns:inkscape="http://www.inkscape.org/namespaces/inkscape"
   width="12.982437mm"
   height="13.236612mm"
   viewBox="0 0 12.982437 13.236612"
   version="1.1"
   id="svg3831"
   inkscape:version="0.92.3 (2405546, 2018-03-11)"
   sodipodi:docname="tv.svg">
  <defs
     id="defs3825" />
  <sodipodi:namedview
     id="base"
     pagecolor="#ffffff"
     bordercolor="#666666"
     borderopacity="1.0"
     inkscape:pageopacity="0.0"
     inkscape:pageshadow="2"
     inkscape:zoom="0.35"
     inkscape:cx="55.962312"
     inkscape:cy="-80.71428"
     inkscape:document-units="mm"
     inkscape:current-layer="layer1"
     showgrid="false"
     fit-margin-top="0"
     fit-margin-left="0"
     fit-margin-right="0"
     fit-margin-bottom="0"
     inkscape:window-width="1366"
     inkscape:window-height="705"
     inkscape:window-x="-8"
     inkscape:window-y="-8"
     inkscape:window-maximized="1" />
  <metadata
     id="metadata3828">
    <rdf:RDF>
      <cc:Work
         rdf:about="">
        <dc:format>image/svg+xml</dc:format>
        <dc:type
           rdf:resource="http://purl.org/dc/dcmitype/StillImage" />
        <dc:title></dc:title>
      </cc:Work>
    </rdf:RDF>
  </metadata>
  <g
     inkscape:label="Layer 1"
     inkscape:groupmode="layer"
     id="layer1"
     transform="translate(-91.026638,-114.24107)">
    <path
       style="fill:#959595;stroke-width:0.26458332"
       d="m 94.923313,127.30848 c -0.275852,-0.27585 0.07354,-0.62455 0.625782,-0.62455 0.394225,0 0.513552,-0.18444 0.513552,-0.79375 v -0.79375 h -1.816402 c -1.436974,0 -1.962027,-0.11455 -2.513541,-0.54837 l -0.69714,-0.54837 v -4.34642 c 0,-5.84268 -0.525227,-5.40476 6.482292,-5.40476 7.007514,0 6.482294,-0.43792 6.482294,5.40476 v 4.34642 l -0.69714,0.54837 c -0.5253,0.4132 -1.07966,0.54837 -2.24896,0.54837 -1.547855,0 -1.55182,0.002 -1.55182,0.79375 0,0.61736 0.117593,0.79375 0.52917,0.79375 0.29398,0 0.52916,0.17639 0.52916,0.39687 0,0.32717 -0.48017,0.39688 -2.734024,0.39688 -1.503715,0 -2.810166,-0.0761 -2.903223,-0.1692 z m 3.736596,-1.48445 c 0.07748,-0.67339 0.01341,-0.7276 -0.859896,-0.7276 -0.87641,0 -0.943616,0.0577 -0.943616,0.81051 0,0.75504 0.05885,0.80484 0.859896,0.7276 0.716514,-0.0691 0.873855,-0.20423 0.943616,-0.81051 z m 4.034711,-1.79525 c 0.29518,-0.15797 0.51178,-0.55213 0.51178,-0.9313 v -0.65741 l -5.618941,0.0714 c -5.314687,0.0675 -5.624265,0.0991 -5.717313,0.58308 -0.199797,1.03922 0.580784,1.20812 5.583382,1.20812 2.754072,0 4.943072,-0.1144 5.241092,-0.2739 z m 0.51178,-5.36173 c 0,-1.97261 -0.10802,-3.09781 -0.3175,-3.30729 -0.44799,-0.44798 -10.294101,-0.44798 -10.742086,0 -0.209481,0.20948 -0.3175,1.33468 -0.3175,3.30729 v 2.98979 h 5.688542 5.688544 z"
       id="path3843"
       inkscape:connector-curvature="0" />
  </g>
</svg>
