<?xml version="1.0" encoding="UTF-8" standalone="no"?>
<!-- Created with Inkscape (http://www.inkscape.org/) -->

<svg
   xmlns:dc="http://purl.org/dc/elements/1.1/"
   xmlns:cc="http://creativecommons.org/ns#"
   xmlns:rdf="http://www.w3.org/1999/02/22-rdf-syntax-ns#"
   xmlns:svg="http://www.w3.org/2000/svg"
   xmlns="http://www.w3.org/2000/svg"
   xmlns:sodipodi="http://sodipodi.sourceforge.net/DTD/sodipodi-0.dtd"
   xmlns:inkscape="http://www.inkscape.org/namespaces/inkscape"
   width="3.7042663mm"
   height="2.9076414mm"
   viewBox="0 0 3.7042663 2.9076414"
   version="1.1"
   id="svg4304"
   inkscape:version="0.92.3 (2405546, 2018-03-11)"
   sodipodi:docname="twitter.svg">
  <defs
     id="defs4298" />
  <sodipodi:namedview
     id="base"
     pagecolor="#ffffff"
     bordercolor="#666666"
     borderopacity="1.0"
     inkscape:pageopacity="0.0"
     inkscape:pageshadow="2"
     inkscape:zoom="3.959798"
     inkscape:cx="7.513249"
     inkscape:cy="43.532107"
     inkscape:document-units="mm"
     inkscape:current-layer="layer1"
     showgrid="false"
     fit-margin-top="0"
     fit-margin-left="0"
     fit-margin-right="0"
     fit-margin-bottom="0"
     inkscape:window-width="1366"
     inkscape:window-height="705"
     inkscape:window-x="-8"
     inkscape:window-y="-8"
     inkscape:window-maximized="1" />
  <metadata
     id="metadata4301">
    <rdf:RDF>
      <cc:Work
         rdf:about="">
        <dc:format>image/svg+xml</dc:format>
        <dc:type
           rdf:resource="http://purl.org/dc/dcmitype/StillImage" />
        <dc:title></dc:title>
      </cc:Work>
    </rdf:RDF>
  </metadata>
  <g
     inkscape:label="Layer 1"
     inkscape:groupmode="layer"
     id="layer1"
     transform="translate(-194.04566,-242.64067)">
    <path
       style="fill:#fefefe;stroke-width:0.26458332"
       d="m 194.04576,245.28608 c 0,-0.14552 0.19229,-0.26458 0.4273,-0.26458 0.39336,0 0.39336,-0.0518 0,-0.65215 -0.43966,-0.67101 -0.58126,-1.73563 -0.22886,-1.72069 0.10914,0.005 0.42955,0.18323 0.71203,0.39688 0.65441,0.49498 0.94161,0.49241 0.94161,-0.008 0,-0.27718 0.27929,-0.39687 0.92605,-0.39687 0.50932,0 0.92604,0.12381 0.92604,0.27512 0,0.54661 -1.04571,2.30925 -1.46558,2.47037 -0.68042,0.2611 -2.23859,0.19173 -2.23859,-0.0997 z"
       id="path4317"
       inkscape:connector-curvature="0" />
  </g>
</svg>
