<?xml version="1.0" encoding="UTF-8" standalone="no"?>
<!-- Created with Inkscape (http://www.inkscape.org/) -->

<svg
   xmlns:dc="http://purl.org/dc/elements/1.1/"
   xmlns:cc="http://creativecommons.org/ns#"
   xmlns:rdf="http://www.w3.org/1999/02/22-rdf-syntax-ns#"
   xmlns:svg="http://www.w3.org/2000/svg"
   xmlns="http://www.w3.org/2000/svg"
   xmlns:sodipodi="http://sodipodi.sourceforge.net/DTD/sodipodi-0.dtd"
   xmlns:inkscape="http://www.inkscape.org/namespaces/inkscape"
   width="42.560566mm"
   height="5.5703602mm"
   viewBox="0 0 42.560566 5.5703602"
   version="1.1"
   id="svg4136"
   inkscape:version="0.92.3 (2405546, 2018-03-11)"
   sodipodi:docname="zara.svg">
  <defs
     id="defs4130" />
  <sodipodi:namedview
     id="base"
     pagecolor="#ffffff"
     bordercolor="#666666"
     borderopacity="1.0"
     inkscape:pageopacity="0.0"
     inkscape:pageshadow="2"
     inkscape:zoom="0.98994949"
     inkscape:cx="436.73476"
     inkscape:cy="109.89957"
     inkscape:document-units="mm"
     inkscape:current-layer="layer1"
     showgrid="false"
     fit-margin-top="0"
     fit-margin-left="0"
     fit-margin-right="0"
     fit-margin-bottom="0"
     inkscape:window-width="1366"
     inkscape:window-height="705"
     inkscape:window-x="-8"
     inkscape:window-y="-8"
     inkscape:window-maximized="1" />
  <metadata
     id="metadata4133">
    <rdf:RDF>
      <cc:Work
         rdf:about="">
        <dc:format>image/svg+xml</dc:format>
        <dc:type
           rdf:resource="http://purl.org/dc/dcmitype/StillImage" />
        <dc:title></dc:title>
      </cc:Work>
    </rdf:RDF>
  </metadata>
  <g
     inkscape:label="Layer 1"
     inkscape:groupmode="layer"
     id="layer1"
     transform="translate(-120.47275,-247.08814)">
    <path
       style="fill:#1c1c1c;stroke-width:0.26458332"
       d="m 123.11364,250.00565 2.64087,-2.65292 H 123.731 c -1.96665,0 -2.03098,0.0204 -2.28925,0.7276 l -0.26575,0.7276 -0.0209,-0.85989 -0.0209,-0.8599 h 3.36847 3.36847 l -2.6359,2.64584 -2.63591,2.64583 h 2.31014 2.31014 v -0.79375 c 0,-0.43656 0.12661,-0.79375 0.28135,-0.79375 0.15804,0 0.24501,0.37688 0.19844,0.8599 l -0.0829,0.85989 -3.57188,0.0732 -3.57187,0.0732 z m 7.83042,2.45366 c 0.54038,-0.0839 1.00663,-0.65057 2.24896,-2.73355 0.86199,-1.44527 1.68631,-2.62646 1.83183,-2.62486 0.14552,0.002 0.92175,1.15542 1.72495,2.56405 1.06167,1.86192 1.63955,2.61105 2.11667,2.74392 0.36805,0.1025 -0.33145,0.17695 -1.59266,0.16951 -1.23693,-0.007 -1.92154,-0.0629 -1.52135,-0.1235 0.81855,-0.124 0.88225,-0.2916 0.37462,-0.98582 -0.5022,-0.6868 -3.02518,-0.6868 -3.52738,0 -0.50762,0.69422 -0.44393,0.86182 0.37463,0.98582 0.40018,0.0606 -0.0463,0.11023 -0.99219,0.11023 -0.94588,0 -1.41302,-0.0476 -1.03808,-0.1058 z m 4.42508,-2.13002 c -0.95206,-1.95405 -0.97224,-1.96514 -1.61016,-0.88522 -0.62052,1.05046 -0.60133,1.08366 0.62646,1.08366 0.59421,0 1.03688,-0.0893 0.9837,-0.19844 z m 7.79165,2.12559 0.7276,-0.11022 v -2.47839 -2.47839 l -0.7276,-0.11023 c -0.40018,-0.0606 0.96485,-0.12806 3.0334,-0.14986 3.54292,-0.0374 3.77785,-0.008 4.05151,0.50317 0.42284,0.79009 0.21309,1.66749 -0.47033,1.96732 -0.32742,0.14365 -0.59531,0.35437 -0.59531,0.46828 0,0.56477 1.37644,2.2878 1.90918,2.38992 0.3324,0.0637 -0.0139,0.13206 -0.76944,0.15188 l -1.3738,0.036 -0.74286,-1.33184 c -0.73885,-1.32462 -1.49748,-1.8025 -2.34511,-1.47724 -0.30411,0.1167 -0.39135,0.45479 -0.33132,1.28404 0.0732,1.01126 0.16212,1.14274 0.87522,1.29403 0.43795,0.0929 -0.27366,0.16467 -1.5875,0.16007 -1.30968,-0.005 -2.05382,-0.0579 -1.65364,-0.11857 z m 5.59366,-3.5808 c 0.53321,-0.84954 -0.11088,-1.37951 -1.78459,-1.46841 l -1.49397,-0.0793 v 1.08474 1.08474 l 1.49397,-0.0794 c 1.07493,-0.0571 1.57548,-0.20922 1.78459,-0.54237 z m 6.244,3.53415 c 0.46419,-0.12919 1.1281,-0.94269 2.24577,-2.75175 0.87273,-1.41259 1.67283,-2.56834 1.77802,-2.56834 0.10519,0 0.88053,1.1851 1.72297,2.63355 1.19966,2.06262 1.67512,2.6563 2.19318,2.73848 0.3638,0.0577 -0.35057,0.10869 -1.5875,0.11328 -1.23692,0.005 -1.93,-0.0669 -1.54017,-0.1588 0.65385,-0.15418 0.68264,-0.21562 0.37139,-0.79267 -0.28831,-0.53453 -0.55242,-0.63076 -1.81553,-0.66145 -1.34131,-0.0326 -1.51697,0.0298 -1.89759,0.67455 -0.41755,0.70726 -0.41553,0.71097 0.44529,0.81755 0.4756,0.0589 0.0908,0.11426 -0.85505,0.12305 -1.07112,0.01 -1.47123,-0.0532 -1.06078,-0.16745 z m 4.03812,-2.83189 c -0.23624,-0.49538 -0.51477,-0.9007 -0.61896,-0.9007 -0.14893,0 -1.30005,1.71357 -1.30005,1.93526 0,0.0291 0.52842,0.0109 1.17426,-0.0405 l 1.17426,-0.0934 z"
       id="path4149"
       inkscape:connector-curvature="0" />
  </g>
</svg>
