<?xml version="1.0" encoding="utf-8"?><svg xmlns="http://www.w3.org/2000/svg" xmlns:xlink="http://www.w3.org/1999/xlink"><symbol viewBox="0 0 1.998 3.412" id="arrow-right" xmlns="http://www.w3.org/2000/svg"><path d="M.623 2.538l.848-.875-.793-.76C.242.485-.055.083.018.01c.074-.073.55.269 1.057.76l.923.895-.847.874c-.465.48-.965.873-1.11.873-.146 0 .116-.393.582-.874z"/></symbol><symbol viewBox="0 0 10.864 13.249" id="game" xmlns="http://www.w3.org/2000/svg"><path d="M.537 12.71c-.495-.496-.53-.882-.53-6.086C.008-.539-.441.01 5.433.01c5.873 0 5.424-.549 5.424 6.614s.45 6.615-5.424 6.615c-4.013 0-4.409-.043-4.895-.53zm9.208-.582c.448-.449.448-10.559 0-11.007-.444-.444-8.182-.444-8.626 0-.448.448-.448 10.558 0 11.007.444.443 8.182.443 8.626 0zm-7.091-.843c0-.201-.238-.428-.53-.504-.596-.156-.725-.717-.164-.717.2 0 .553-.268.784-.595l.419-.596.173.596c.095.327.338.595.54.595.53 0 .443.314-.272.992-.725.688-.95.742-.95.23zm3.351.19c-.304-.304-.193-.617.22-.617.219 0 .398.178.398.396 0 .414-.313.525-.618.221zm2.11-.007c-.298-.298-.182-.61.227-.61.219 0 .397.112.397.249 0 .333-.413.572-.624.361zM6.409 9.515c.052-.156.208-.284.346-.284.138 0 .294.128.346.284.052.156-.104.284-.346.284-.243 0-.399-.128-.346-.284zm2.066.02c0-.146.178-.265.396-.265.219 0 .397.12.397.265 0 .145-.178.264-.397.264-.218 0-.396-.119-.396-.264zM1.756 7.793c-.303-.789-.176-5.545.157-5.878.4-.4 6.11-.437 6.844-.044.453.243.511.575.511 2.889 0 1.438-.072 2.803-.16 3.033-.24.626-7.112.626-7.352 0zM8.42 5.06c.056-1.603-.018-2.288-.265-2.444-.51-.323-5.174-.276-5.379.055-.13.211-.228 3.574-.135 4.624.007.077 1.293.107 2.857.066l2.844-.075z"/></symbol><symbol viewBox="0 0 11.642 12.965" id="logo" xmlns="http://www.w3.org/2000/svg"><path d="M4.233 11.377C2.87 9.803 2.846 9.79 1.43 9.79.643 9.79 0 9.717 0 9.63c0-.142 1.945-3.507 4.688-8.109C5.187.685 5.695 0 5.817 0c.194 0 5.825 9.345 5.825 9.667 0 .067-.647.123-1.437.123-1.427 0-1.447.011-2.818 1.587-.76.873-1.47 1.588-1.58 1.588-.109 0-.817-.715-1.574-1.588zm3.107-.33l1.369-1.39L7.524 5.85C6.872 3.755 6.389 1.99 6.45 1.93c.062-.062.488 1.116.946 2.617 1.627 5.322 1.369 4.836 2.613 4.928.607.045 1.104.01 1.104-.08 0-.089-.675-1.316-1.5-2.727a264.404 264.404 0 0 1-2.252-3.925C6.54 1.26 5.826.874 5.16 1.55 4.746 1.971.529 9.106.529 9.386c0 .305 2.14.122 2.242-.192.06-.182.61-1.938 1.22-3.902C4.604 3.327 5.147 1.84 5.2 1.989c.053.148-.432 1.92-1.076 3.94l-1.172 3.67 1.341 1.419c.738.78 1.417 1.417 1.51 1.417.093 0 .785-.625 1.538-1.389zm-1.607.947c-.28-.278-.197-9.436.088-9.877.17-.264.258 1.357.26 4.828.002 2.874-.035 5.226-.084 5.226-.048 0-.167-.08-.264-.177z"/></symbol><symbol viewBox="0 0 13.221 12.121" id="love" xmlns="http://www.w3.org/2000/svg"><path d="M3.572 8.88C-.045 4.712-.528 3.622.426 1.777c1.05-2.031 3.812-2.388 5.59-.723l.577.54.935-.714c1.828-1.394 4.096-1.073 5.2.737.58.952.66 2.414.178 3.267-.52.92-5.991 7.237-6.268 7.237-.14 0-1.519-1.459-3.066-3.241zm5.875-.872c2.832-3.317 3.309-4.304 2.741-5.675-.757-1.829-2.65-2.048-4.542-.528l-1.015.816-.996-.8C5.087 1.38 4.27.946 3.82.856 1.883.47.32 2.502 1.116 4.374c.366.86 5.184 6.689 5.53 6.689.106 0 1.366-1.375 2.8-3.055z"/></symbol><symbol viewBox="0 0 2.911 5.29" id="next" xmlns="http://www.w3.org/2000/svg"><path d="M0 5.265c0-.146.536-.793 1.192-1.436l1.191-1.17L1.141 1.4C.458.705-.04.079.031.006c.073-.072.75.494 1.506 1.26l1.374 1.39-1.455 1.438C.655 4.884 0 5.412 0 5.265z"/></symbol><symbol viewBox="0 0 13.204 13.193" id="optimization" xmlns="http://www.w3.org/2000/svg"><path d="M3.827 12.836c-.598-.21-1.525-.881-2.131-1.545C-.495 8.895-.57 5.707 1.512 3.403c.96-1.063 2.603-2.079 3.363-2.079.264 0 .407-.246.407-.698 0-.688.023-.696 1.438-.55 1.848.19 3.188.836 4.54 2.187 1.755 1.752 2.428 4.573 1.577 6.61-.25.6-.562.918-.896.918-.282 0-.72.327-.973.727-1.444 2.283-4.454 3.26-7.14 2.318zm3.698-.694c.983-.273 3.05-1.987 3.05-2.528 0-.132-1.192-.63-2.647-1.107L5.282 7.64V4.86c0-2.759-.004-2.777-.595-2.598C.827 3.432-.4 8.077 2.41 10.887c1.43 1.43 3.051 1.828 5.115 1.255zm4.89-5.078c.067-2.732-2.64-5.845-5.277-6.067l-.825-.07L6.3 3.97l-.013 3.043 2.739.962 2.738.963.319-.698c.175-.384.324-.913.33-1.176z"/></symbol><symbol viewBox="0 0 12.888 11.058" id="paint" xmlns="http://www.w3.org/2000/svg"><path d="M.836 10.628C-.1 10.167-.238 9.88.362 9.65c.212-.082.685-.624 1.052-1.205.468-.74.946-1.134 1.597-1.314.64-.177 2.042-1.311 4.512-3.652C9.493 1.612 11.31.049 11.562.008c.251-.042.69.095.978.305.852.623.297 1.42-3.436 4.941-2.191 2.067-3.488 3.49-3.573 3.922-.178.91-1.68 1.89-2.882 1.882-.524-.003-1.34-.197-1.813-.43zm3.09-.745c.971-.502 1.159-1.041.6-1.727-.394-.485-.553-.517-1.295-.257-.69.242-1.932 1.69-1.932 2.254 0 .282 1.947.082 2.627-.27zm1.818-2.576c.422-.422.402-.741-.047-.741s-1.018.646-.78.884c.253.253.468.216.827-.143zm3.818-3.58C10.984 2.31 12.147 1.06 12.147.949c0-.58-.912.06-3.272 2.298C6.625 5.38 5.999 6.3 6.8 6.3c.098 0 1.341-1.158 2.762-2.574z"/></symbol><symbol viewBox="0 0 7.411 13.233" id="phone" xmlns="http://www.w3.org/2000/svg"><path d="M.53 12.702c-.495-.496-.529-.882-.529-6.085 0-6.92-.17-6.615 3.704-6.615C7.58.002 7.41-.302 7.41 6.617c0 6.919.17 6.614-3.704 6.614-2.293 0-2.716-.07-3.175-.529zm5.768-.582c.175-.175.318-.953.318-1.729V8.98l-2.845.075-2.844.075-.081 1.277c-.046.715.056 1.444.23 1.654.403.486 4.747.535 5.222.059zm-3.12-.87c-.47-.568-.121-1.248.59-1.146.678.096.962.966.426 1.305-.496.315-.64.292-1.015-.159zm3.438-5.692V2.912H.795v5.292h5.82zm0-3.783c0-.757-.66-.98-2.91-.98s-2.911.223-2.911.98c0 .261.699.344 2.91.344 2.212 0 2.91-.083 2.91-.344z"/></symbol><symbol viewBox="0 0 9.79 11.906" id="play" xmlns="http://www.w3.org/2000/svg"><path d="M0 5.953C0 .11.01 0 .548 0c.3 0 2.503 1.21 4.894 2.689C8.908 4.833 9.79 5.495 9.79 5.954c0 .459-.882 1.125-4.324 3.264-2.378 1.479-4.58 2.688-4.894 2.688-.57 0-.572-.03-.572-5.953zm4.907 2.203c1.965-1.19 3.48-2.243 3.368-2.342-.3-.261-6.959-4.227-7.099-4.227-.065 0-.118 1.965-.118 4.366s.062 4.366.138 4.366c.076 0 1.746-.974 3.711-2.163z"/></symbol><symbol viewBox="0 0 2.911 5.29" id="prev" xmlns="http://www.w3.org/2000/svg"><path d="M1.374 4.024L0 2.633l1.456-1.438C2.256.405 2.91-.122 2.91.025c0 .146-.536.792-1.191 1.436L.528 2.63 1.77 3.89c.683.693 1.182 1.32 1.11 1.392-.073.073-.75-.494-1.506-1.259z"/></symbol><symbol viewBox="0 0 8.386 6.83" id="quote" xmlns="http://www.w3.org/2000/svg"><path d="M1.22 6.696C.108 6.406-.378 3.98.333 2.278.775 1.221 2.03 0 2.675 0c.716 0 .558.464-.46 1.358C1.033 2.396.977 3.175 2.083 3.175c1.732 0 2.5 2.098 1.155 3.156-.684.537-1.082.61-2.019.365zm4.497 0c-1.11-.29-1.597-2.716-.886-4.418C5.273 1.221 6.528 0 7.173 0c.715 0 .558.464-.46 1.358C5.53 2.396 5.474 3.175 6.58 3.175c1.69 0 2.414 1.842 1.202 3.055-.626.626-1.07.726-2.066.466z"/></symbol><symbol viewBox="0 0 12.982 13.237" id="tv" xmlns="http://www.w3.org/2000/svg"><path d="M3.897 13.067c-.276-.275.073-.624.625-.624.395 0 .514-.185.514-.794v-.794H3.22c-1.437 0-1.962-.114-2.514-.548L.01 9.759V5.412C.009-.43-.516.007 6.49.007c7.008 0 6.483-.437 6.483 5.405V9.76l-.698.548c-.525.413-1.08.548-2.249.548-1.547 0-1.551.002-1.551.794 0 .617.117.794.529.794.294 0 .529.176.529.397 0 .327-.48.397-2.734.397-1.504 0-2.81-.076-2.903-.17zm3.736-1.484c.078-.673.014-.728-.86-.728-.876 0-.943.058-.943.81 0 .756.059.806.86.728.716-.069.874-.204.943-.81zm4.035-1.795c.295-.158.512-.552.512-.932V8.2l-5.62.071c-5.314.068-5.623.1-5.716.583-.2 1.04.58 1.209 5.583 1.209 2.754 0 4.943-.115 5.241-.274zm.512-5.362c0-1.973-.108-3.098-.318-3.307C11.414.67 1.568.67 1.12 1.119c-.21.21-.317 1.334-.317 3.307v2.99H12.18z"/></symbol></svg>